<?xml version="1.0" standalone="no"?>
  <!DOCTYPE svg PUBLIC "-//W3C//DTD SVG 1.1//EN" "http://www.w3.org/Graphics/SVG/1.1/DTD/svg11.dtd" >
  <svg>
  <metadata>
  Created by font-carrier
  </metadata>
  <defs>
  <font id="mr_DopestyleG" horiz-adv-x="1075" vert-adv-y="1075" >
    <font-face
      
      font-family="mr_DopestyleG"
      
      font-weight="400"
      
      font-stretch="normal"
      
      units-per-em="500"
      
      ascent="375"
      
      descent="-125"
      
    />
      <missing-glyph />

      

      
      <glyph glyph-name="uni33" unicode="&#x33;" d="M318 151Q336 132 345.50 112Q355 92 360 72Q365 49 363.50 28.50Q362 8 358-8Q356-16 350-33.50Q344-51 333-68Q309-103 276.50-117Q244-131 198-131Q149-130 109-114Q92-107 75.50-96.50Q59-86 46-70.50Q33-55 24-33.50Q15-12 14 17Q12 53 20 82Q26 107 42.50 128Q59 149 91 151Q106 151 117 146Q127 141 135 131Q143 121 144 100Q143 94 138 92Q133 91 126 87.50Q119 84 112 76Q105 68 99 54Q93 40 91 18Q87-37 116.50-66.50Q146-96 192-98Q245-99 281-35Q284-30 285.50-24.50Q287-19 289-14Q291-9 292-4Q301 38 288 69Q275 100 251 123Q243 122 236.50 121.50Q230 121 223 121Q210 121 201.50 124.50Q193 128 188 133.50Q183 139 180.50 145Q178 151 177 156Q175 164 183 166Q186 167 190 167Q206 165 219 170.50Q232 176 242 185Q252 194 258.50 204.50Q265 215 269 223Q287 261 289.50 284.50Q292 308 288 321Q284 336 272 343Q258 349 239 342Q220 335 204 324Q193 316 181 304.50Q169 293 163 278Q161 275 159 273Q154 269 148 276Q145 280 145 289Q145 298 151.50 309.50Q158 321 171.50 334.50Q185 348 208 362Q233 378 257.50 381.50Q282 385 301 374Q310 369 320.50 355.50Q331 342 338 320.50Q345 299 345.50 269.50Q346 240 336 204Q333 196 330 189Q327 182 325 177Q319 165 314 160L310 156L311 156Q313 155 315 153.50Q317 152 318 151Z"  horiz-adv-x="369" vert-adv-y="500"  />

      
      <glyph glyph-name="uni34" unicode="&#x34;" d="M367 373Q371 369 372 366Q379 354 377 340Q375 326 371 318Q349 276 329.50 232Q310 188 296 142Q316 146 325.50 150Q335 154 338 156Q340 158 342 158L344 158Q353 157 358 143Q359 140 360 136.50Q361 133 361 129Q361 121 359 113Q357 108 355.50 105Q354 102 352 100Q350 97 348 96Q336 88 318 82.50Q300 77 278 73Q278 69 277 67L277 66Q276 62 275.50 58.50Q275 55 274 50Q268 15 268.50-14Q269-43 272-65Q275-87 278.50-101Q282-115 282-121Q282-127 277.50-128.50Q273-130 268-130Q264-130 260-128Q258-127 257-127Q235-119 220-105.50Q205-92 196-76Q187-60 183-42.50Q179-25 179-8Q179 9 181.50 26.50Q184 44 189 62Q157 60 130 59.50Q103 59 87 59L75 59L70 59Q41 61 27.50 70.50Q14 80 9 93Q6 101 7 109.50Q8 118 10 125Q12 132 15 137Q18 142 19 144Q38 174 67 202Q96 230 124 252.50Q152 275 174.50 290.50Q197 306 203 310Q214 316 223.50 322.50Q233 329 244 335Q264 347 285 358.50Q306 370 329 378Q337 380 348 380.50Q359 381 367 373M292 287Q298 297 304 307Q310 317 318 328Q292 309 261 286.50Q230 264 198.50 239.50Q167 215 138 189.50Q109 164 88 139L88 138Q85 135 77.50 127.50Q70 120 67 116Q79 115 97.50 116Q116 117 136.50 119.50Q157 122 177.50 125Q198 128 213 132Q222 153 231 172Q240 191 247.50 206Q255 221 261 231Q267 241 269 245Q274 256 280 266Q286 276 292 287Z"  horiz-adv-x="389" vert-adv-y="500"  />

      
      <glyph glyph-name="uni35" unicode="&#x35;" d="M261 190Q307 165 327.50 134Q348 103 355 72Q360 49 358.50 28.50Q357 8 354-8Q352-16 346-33.50Q340-51 328-68Q304-103 271.50-117Q239-131 193-131Q144-130 104-114Q87-107 70.50-96.50Q54-86 41-70.50Q28-55 19-33.50Q10-12 9 17Q7 53 15 82Q21 107 37.50 128Q54 149 86 151Q101 151 112 146Q122 141 130.50 131Q139 121 139 100Q138 96 136.50 94.50Q135 93 134 92Q129 91 121.50 87.50Q114 84 107 76Q100 68 94 54Q88 40 87 18Q85-9 91.50-30.50Q98-52 111.50-66.50Q125-81 144.50-89Q164-97 187-98Q240-99 276-35Q279-30 280.50-24.50Q282-19 284-14Q286-9 287-4Q296 36 284.50 66Q273 96 251 118Q229 140 200.50 155Q172 170 145 179Q140 181 135 182Q130 183 125 185Q123 186 121 186Q107 192 101.50 201Q96 210 95.50 219.50Q95 229 97 237.50Q99 246 101 251Q103 253 103.50 255.50Q104 258 106 260Q108 265 110.50 269Q113 273 115 277Q126 300 137 317Q139 320 140.50 323Q142 326 144 328Q144 330 146 332Q146 333 147 333Q154 344 164 355Q177 368 194 376Q199 378 203.50 379Q208 380 213 380Q241 379 266 378Q291 377 299 376Q301 376 302.50 375.50Q304 375 305 375L307 375Q324 375 334.50 378.50Q345 382 351 387.50Q357 393 359 399.50Q361 406 361 412Q363 419 368 418.50Q373 418 378 416Q405 399 414.50 381Q424 363 425 349Q426 332 417 316Q402 289 370.50 286.50Q339 284 301 292Q292 294 263.50 300.50Q235 307 200 314Q189 291 178.50 267Q168 243 159 218Q182 216 200 211.50Q218 207 232 202Q248 197 261 190Z"  horiz-adv-x="430" vert-adv-y="500"  />

      
      <glyph glyph-name="uni36" unicode="&#x36;" d="M307 385Q326 374 334.50 350.50Q343 327 341 298Q340 271 334.50 252.50Q329 234 322 223Q315 212 307.50 207.50Q300 203 295 204Q289 205 287.50 207.50Q286 210 286 212Q286 215 289 218Q300 231 304 247Q308 263 310 276Q312 295 309 315Q306 335 294 345Q273 356 247 345Q236 340 223 329Q210 318 196 299.50Q182 281 166 252.50Q150 224 134 184Q155 193 181 195.50Q207 198 237 190Q291 176 314 143Q337 110 335 67Q334 35 321-3Q318-8 317-14Q315-18 305.50-36.50Q296-55 273.50-75.50Q251-96 215-112Q179-128 125-125Q119-125 116-124Q68-118 40-87Q28-74 19-54.50Q10-35 7.50-6.50Q5 22 11 59.50Q17 97 34 146Q68 244 110 297Q152 350 191 372Q230 394 261.50 393.50Q293 393 307 385M143 144Q129 134 119 120.50Q109 107 103 93Q96 77 92 60Q84 28 84 1Q84-22 90.50-45Q97-68 119-76Q139-84 161-78.50Q183-73 202.50-55.50Q222-38 236.50-8.50Q251 21 256 61Q256 63 257 75.50Q258 88 255 103.50Q252 119 242.50 133.50Q233 148 214 154Q197 159 178.50 157.50Q160 156 143 144Z"  horiz-adv-x="347" vert-adv-y="500"  />

      
      <glyph glyph-name="uni37" unicode="&#x37;" d="M338 332Q287 273 238.50 205.50Q190 138 158 61L158 60Q156 56 152 46Q139 13 133.50-16Q128-45 126.50-67Q125-89 125.50-103.50Q126-118 125-123Q124-129 119-130Q114-131 109-129L99-125Q79-113 67-96.50Q55-80 49.50-62Q44-44 44-26Q44-8 47 8Q54 43 74 81.50Q94 120 116 153Q138 186 157 209Q176 232 181 238Q189 248 196.50 257Q204 266 212 274Q225 288 238 301.50Q251 315 265 328Q245 323 224.50 317.50Q204 312 186.50 306.50Q169 301 156 296.50Q143 292 137 291Q99 282 68 284.50Q37 287 20 314Q11 329 11 347Q11 361 19.50 379.50Q28 398 54 415Q59 417 64 417.50Q69 418 71 410Q71 404 73.50 397.50Q76 391 82.50 386Q89 381 99.50 377.50Q110 374 127 374L136 374Q143 375 165 376Q187 377 213 378Q239 379 263.50 380Q288 381 300 381L302 381L321 381Q327 380 335.50 376.50Q344 373 346 360Q348 349 343.50 341.50Q339 334 338 332Z"  horiz-adv-x="355" vert-adv-y="500"  />

      
      <glyph glyph-name="uni38" unicode="&#x38;" d="M285 383Q324 373 340.50 349.50Q357 326 355 295Q355 273 345 245Q344 243 343.50 241Q343 239 342 237Q341 235 337 226.50Q333 218 324.50 207.50Q316 197 302.50 186.50Q289 176 268 169Q305 152 320.50 122.50Q336 93 335 57Q334 25 321-13Q319-16 318.50-18.50Q318-21 316-24Q315-28 306-46Q297-64 275.50-83.50Q254-103 218.50-118Q183-133 129-130Q123-130 119-129Q95-128 74-118Q56-110 38-92Q20-74 12-41Q7-24 6-7.50Q5 9 6 22Q7 37 10 50Q18 85 34.50 108.50Q51 132 71 147Q91 162 112.50 170Q134 178 151 181Q143 189 136 199.50Q129 210 125 225Q121 237 120.50 249Q120 261 121 270Q122 281 124 290Q132 324 151 343.50Q170 363 190.50 373Q211 383 228.50 385Q246 387 251 387Q269 387 285 383M256 51Q256 53 257 65.50Q258 78 255 93.50Q252 109 242.50 123.50Q233 138 214 144Q197 149 178.50 147.50Q160 146 143 134Q129 124 119 110.50Q109 97 103 83Q96 67 92 50Q84 18 84-9Q84-32 90.50-55Q97-78 119-86Q139-94 161-88.50Q183-83 202.50-65.50Q222-48 236.50-18.50Q251 11 256 51M275 288Q281 311 280 325Q279 339 275 346.50Q271 354 266 356.50Q261 359 259 359Q256 359 250.50 357.50Q245 356 238 349.50Q231 343 222.50 329Q214 315 206 290Q195 260 193.50 241Q192 222 195 211Q198 200 204 195.50Q210 191 215 190L218 190L219 190L220 190Q240 191 252 216Q264 241 275 288Z"  horiz-adv-x="369" vert-adv-y="500"  />

      
      <glyph glyph-name="uni39" unicode="&#x39;" d="M270 383Q317 377 345 346Q357 333 366 313.50Q375 294 377.50 265.50Q380 237 374.50 199.50Q369 162 352 113Q327 42 298.50-4.50Q270-51 240.50-79Q211-107 183.50-119.50Q156-132 133-135L132-135Q113-136 98-133Q60-127 41.50-104Q23-81 16-60Q12-49 11-41.50Q10-34 9-32L9-31L9-7Q10 20 15.50 38Q21 56 28 67.50Q35 79 42.50 83.50Q50 88 56 87Q64 85 64 78Q63 75 61 72Q51 60 47 43.50Q43 27 41 15L41 13L41 12Q41 9 40.50-3.50Q40-16 42.50-31.50Q45-47 52.50-62.50Q60-78 75-85Q76-85 76-85.50Q76-86 77-86Q93-93 107.50-92Q122-91 134-86Q146-81 155-74.50Q164-68 169-63Q171-62 171.50-61Q172-60 174-59L174-58Q191-40 211-8.50Q231 23 252 74Q230 66 204.50 63.50Q179 61 149 69Q94 83 71.50 116Q49 149 51 192Q51 209 55 226.50Q59 244 65 262Q66 264 67 267Q68 270 69 272Q70 276 80 295Q90 314 112 334.50Q134 355 170 370.50Q206 386 260 384Q262 384 265 383.50Q268 383 270 383M294 199Q301 231 301 258Q301 281 294.50 303.50Q288 326 267 334Q247 342 224.50 336.50Q202 331 182.50 313.50Q163 296 148 267Q133 238 129 198Q129 195 128 182.50Q127 170 130 155Q133 140 142 125.50Q151 111 171 105Q188 100 207 101.50Q226 103 243 115Q257 124 266.50 138Q276 152 282 166Q289 182 294 199Z"  horiz-adv-x="388" vert-adv-y="500"  />

      
      <glyph glyph-name="uni42" unicode="&#x42;" d="M44 6Q42 11 40 17Q37 27 37 43Q37 49 45 55.50Q53 62 62 64.50Q71 67 78.50 65Q86 63 86 53L86 48Q87 21 105 2.50Q123-16 153-18Q186-21 211.50-7Q237 7 254 29Q271 51 280 76Q289 101 289 120Q289 143 280 159.50Q271 176 260 180Q255 179 251 179Q247 179 243 179Q210 179 210 193Q210 198 217 205Q224 212 238 212Q243 212 248 211.50Q253 211 258 210Q261 212 278 223.50Q295 235 313.50 254Q332 273 347.50 299Q363 325 363 356Q363 402 309 402Q290 402 265 390.50Q240 379 216 359.50Q192 340 172 314.50Q152 289 144 262Q143 255 140 251Q134 240 128 240Q126 240 119 247Q112 254 104 266Q96 278 89.50 293.50Q83 309 83 325Q83 336 87 344Q88 344 100 359Q112 374 138 391.50Q164 409 204.50 424Q245 439 303 439Q320 439 343 435Q366 431 387 420Q408 409 422.50 388.50Q437 368 437 335Q437 327 436 318Q435 309 432 298Q425 274 409 254Q395 236 369.50 218.50Q344 201 302 191Q303 191 315 186.50Q327 182 340.50 171Q354 160 365 142Q376 124 376 96Q376 59 360 28.50Q344-2 316.50-24Q289-46 252-58Q215-70 174-70Q158-70 139.50-67Q121-64 103.50-55.50Q86-47 70-32Q54-17 44 6M94 72Q92 73 92.50 78.50Q93 84 94.50 92.50Q96 101 99 110Q102 119 105 127Q112 148 123.50 174.50Q135 201 148.50 227Q162 253 177 276Q192 299 206 314Q206 314 207.50 316.50Q209 319 213.50 322Q218 325 227 327.50Q236 330 251 330Q254 330 257 328.50Q260 327 260 321Q260 316 253 306Q246 296 234.50 274.50Q223 253 207.50 216.50Q192 180 174 122Q173 117 170 104.50Q167 92 163 79Q159 66 154 56Q149 46 144 46Q136 46 121 51.50Q106 57 98 67L94 72Z"  horiz-adv-x="388" vert-adv-y="500"  />

      
      <glyph glyph-name="uni43" unicode="&#x43;" d="M569 71Q574 65 572.50 51.50Q571 38 559 18Q544-5 521-31Q498-57 469-79.50Q440-102 405.50-116Q371-130 331-127Q299-130 272.50-105Q246-80 234-34Q222 12 230 75.50Q238 139 277 212Q249 195 219.50 176.50Q190 158 162 146Q134 134 109 133.50Q84 133 65 151Q52 164 48 181Q44 195 48 214.50Q52 234 74 257Q77 260 82 261.50Q87 263 91 257Q93 251 97 245Q101 239 108.50 235.50Q116 232 128 231.50Q140 231 157 236Q180 245 206 254Q229 262 257.50 269Q286 276 316 281Q347 327 379 351Q411 375 439 384Q467 393 489 390.50Q511 388 522 382Q539 372 548 351Q557 330 557 304Q566 321 574.50 338Q583 355 590.50 367.50Q598 380 604.50 387Q611 394 617 392Q629 387 635 376Q640 367 640 350Q640 333 627 306Q616 283 601 261.50Q586 240 568 221Q550 202 531 187Q512 172 494 163Q474 155 464 158.50Q454 162 449 168Q444 175 443 187Q442 200 438 209Q436 213 434 216Q433 222 418 231Q403 240 377 242Q367 239 354.50 214Q342 189 331.50 154Q321 119 315.50 80.50Q310 42 315.50 11Q321-20 340-37Q359-54 397-45Q422-39 444.50-26.50Q467-14 486 1Q505 16 520 31Q535 46 544 57Q550 63 557.50 69Q565 75 569 71M509 342Q496 350 479 347Q465 345 445.50 331.50Q426 318 403 284Q432 279 453.50 264Q475 249 480 218Q486 222 493 226Q499 230 506.50 236Q514 242 522 252Q524 262 525 275Q526 288 525 300.50Q524 313 520.50 324.50Q517 336 509 342Z"  horiz-adv-x="583" vert-adv-y="500"  />

      
      <glyph glyph-name="uni44" unicode="&#x44;" d="M136 190Q99 190 81 204Q63 218 59 237.50Q55 257 63 280Q71 303 85 321Q85 322 87 324Q116 360 161 382Q206 404 254.50 408.50Q303 413 349.50 397Q396 381 429 342Q492 360 532 359Q572 358 582 324Q586 302 579.50 288.50Q573 275 563 267Q557 262 556 262Q555 262 554 262Q552 263 550 265L549 266Q548 273 546 276Q545 278 544 279Q525 292 502.50 293Q480 294 459 291Q482 234 470.50 162Q459 90 402 12Q372-29 327.50-51.50Q283-74 236.50-77.50Q190-81 149-65.50Q108-50 85-14Q76-2 77.50 14.50Q79 31 85.50 41.50Q92 52 102.50 51Q113 50 122 28Q127 10 147-1Q167-12 186-16Q218-22 249.50-10Q281 2 308 26Q335 50 356 82.50Q377 115 390.50 150.50Q404 186 407.50 220.50Q411 255 403 283Q355 273 311 254Q267 235 229 218Q221 193 213.50 164Q206 135 201 102Q197 85 196.50 67Q196 49 188 32Q186 27 182.50 26.50Q179 26 177 27Q168 29 154 33Q140 37 132 47Q127 47 126 56.50Q125 66 125.50 77Q126 88 128 97Q130 106 131 107Q135 122 142.50 145Q150 168 158 192Q151 190 145 190Q139 190 136 190M383 328Q359 363 321 371Q283 379 245.50 367Q208 355 177 326Q146 297 137 259Q135 247 137.50 241Q140 235 145 233.50Q150 232 157.50 233.50Q165 235 174 238Q185 267 198 292.50Q211 318 222 332Q224 334 226 336.50Q228 339 233 341Q239 344 249.50 347Q260 350 270 347L273 344Q274 342 275 338.50Q276 335 274 330Q272 325 263.50 306.50Q255 288 245 262Q280 278 317 297Q354 316 383 328Z"  horiz-adv-x="485" vert-adv-y="500"  />

      
      <glyph glyph-name="uni45" unicode="&#x45;" d="M91 271Q70 264 56 265Q42 266 34.50 270.50Q27 275 24 281.50Q21 288 21 293Q19 308 27 326.50Q35 345 50 359Q70 378 92.50 379Q115 380 126 356Q128 350 129 346Q142 352 170.50 364Q199 376 234.50 387.50Q270 399 308.50 406.50Q347 414 380 412Q396 411 413.50 407.50Q431 404 447 395.50Q463 387 475.50 373Q488 359 495 337L495 334Q495 332 495.50 330Q496 328 496 326Q496 321 494.50 316Q493 311 486 312Q481 313 467 317Q453 321 431.50 325.50Q410 330 381 332Q352 334 316 331Q306 329 301 329L300 329Q285 327 267.50 324.50Q250 322 236 318Q225 295 214 267Q203 239 193 215Q210 224 223 225Q238 228 251 226Q262 224 272.50 219Q283 214 288 200Q299 169 289.50 147Q280 125 261 111.50Q242 98 220.50 92Q199 86 187 87Q177 87 173.50 89Q170 91 168 96Q166 101 167 103.50Q168 106 170 108Q172 110 175 111Q196 119 211 132.50Q226 146 236 159Q247 174 255 190L253 192Q250 193 243 191Q235 188 214.50 174Q194 160 169 125Q166 121 163.50 117.50Q161 114 158 109Q141 72 135.50 23.50Q130-25 144-69Q168-62 194-53.50Q220-45 243-34L244-33Q248-31 258-27Q289-11 311 7Q333 25 348 41Q363 57 372 69Q381 81 385 84Q390 88 394 85Q398 82 401 77Q403 75 405 71Q406 69 407 68Q415 45 414 27.50Q413 10 406.50-4.50Q400-19 389-30Q378-41 365-51Q338-72 298-86.50Q258-101 220-110.50Q182-120 152-124.50Q122-129 115-130Q113-131 110-131Q78-133 66-129Q54-125 46-117Q39-108 38.50-103.50Q38-99 40.50-96.50Q43-94 47.50-93Q52-92 57-90L75-87Q63-66 59-40.50Q55-15 57.50 12Q60 39 66.50 66Q73 93 81 117Q88 150 90.50 178Q93 206 93 226.50Q93 247 92 258.50Q91 270 91 271M130 286Q128 270 126 249Q124 228 122 212Q129 226 134 241Q139 256 141 260Q146 269 151.50 278.50Q157 288 162 297Q154 294 146 291.50Q138 289 130 286M76 343Q71 341 68 336Q65 331 63 326.50Q61 322 61.50 318.50Q62 315 65 317Q69 319 73 321Q77 323 80 325Q84 327 87 329Q86 333 84 337Q80 344 76 343Z"  horiz-adv-x="424" vert-adv-y="500"  />

      
      <glyph glyph-name="uni46" unicode="&#x46;" d="M91 261Q70 254 56 255Q42 256 34.50 260.50Q27 265 24 271.50Q21 278 21 283Q19 298 27 316.50Q35 335 50 349Q70 368 93 369Q116 370 126 346Q129 341 129 336Q142 342 170.50 354Q199 366 234.50 377.50Q270 389 308.50 396.50Q347 404 380 402Q396 401 413.50 397.50Q431 394 447 385.50Q463 377 475.50 363Q488 349 495 327L495 324Q495 322 495.50 320Q496 318 496 316Q497 311 495 306Q493 301 487 302Q481 303 465.50 307Q450 311 426.50 315.50Q403 320 372.50 322Q342 324 306 321Q296 319 291 319L290 319Q275 317 260.50 314.50Q246 312 231 308Q214 275 199 240.50Q184 206 171 170Q188 192 208 207Q228 222 250 225Q265 228 278 226Q289 224 299.50 219Q310 214 315 200Q326 169 316.50 147Q307 125 288 111.50Q269 98 247.50 92Q226 86 214 87Q196 87 195 96Q193 101 194 103.50Q195 106 197 108Q199 110 202 111Q223 119 238 132.50Q253 146 263 159Q274 174 282 190L280 192Q277 193 270 191Q264 189 243 176.50Q222 164 199.50 140Q177 116 158 80.50Q139 45 137-3Q136-50 142.50-79Q149-108 150-116Q150-122 145-123.50Q140-125 135-125L133-125L133-124L134-123Q112-115 97.50-101.50Q83-88 74-71.50Q65-55 61-37.50Q57-20 57-3Q56 25 63 56Q70 87 81 117Q95 183 93.50 221Q92 259 91 261M130 276Q129 260 126.50 244Q124 228 122 212Q129 226 134 236Q139 246 141 250Q146 259 151.50 268.50Q157 278 162 287Q154 284 146 281.50Q138 279 130 276M76 333Q71 331 68 326Q65 321 63 316.50Q61 312 61.50 308.50Q62 305 65 307Q69 309 73 311Q77 313 80 315Q84 317 87 319Q86 323 84 327Q80 334 76 333Z"  horiz-adv-x="311" vert-adv-y="500"  />

      
      <glyph glyph-name="uni47" unicode="&#x47;" d="M64 5Q51 18 47 35Q43 49 46.50 68Q50 87 72 110Q76 114 80.50 115.50Q85 117 89 110Q93 100 104.50 90.50Q116 81 144 87Q147 100 151.50 114Q156 128 161 143Q195 241 237 294Q279 347 318 369Q357 391 388.50 390.50Q420 390 434 382Q456 370 464 341Q472 356 479.50 370.50Q487 385 493.50 395.50Q500 406 506 411.50Q512 417 517 415Q529 410 535 399Q540 390 540 373Q540 356 526 329Q504 283 467.50 243Q431 203 394 186Q380 181 371 181Q362 181 356.50 184Q351 187 348 192Q345 197 344 202Q342 210 347.50 217Q353 224 360 229Q368 235 379 240Q388 244 398 252Q406 259 416 269.50Q426 280 437 295Q437 309 433.50 321.50Q430 334 421 342Q395 355 365 338Q339 324 306 278Q273 232 236 131Q236 129 235 127Q233 121 232 117Q244 120 253 123Q254 124 256 124Q259 125 274 128.50Q289 132 310.50 135.50Q332 139 357 140Q382 141 405 137Q425 134 441 125.50Q457 117 467 101Q470 96 472.50 90Q475 84 477 77Q477 75 478 74Q481 60 481 36.50Q481 13 473-19Q464-52 445-89Q431-119 407-145Q383-171 347-185Q339-188 332-189Q325-190 320-190Q301-188 295.50-183Q290-178 291-173Q292-167 297-165Q323-149 352.50-123Q382-97 405-59Q373-89 332-109.50Q291-130 243-127Q215-124 192-111Q172-100 155-76Q138-52 135-9Q114-14 96-11.50Q78-9 64 5M218 33Q217 15 220.50-2Q224-19 233.50-30.50Q243-42 260-46.50Q277-51 304-45Q325-40 349-28.50Q373-17 393.50-4.50Q414 8 427.50 20.50Q441 33 441 40L441 41Q441 46 440.50 49Q440 52 439 55L439 56Q439 57 438.50 57Q438 57 438 58Q434 72 424 80Q414 88 403 91.50Q392 95 382 95.50Q372 96 369 96Q351 97 329 90.50Q307 84 286 74Q265 64 246.50 53Q228 42 218 33Z"  horiz-adv-x="495" vert-adv-y="500"  />

      
      <glyph glyph-name="uni48" unicode="&#x48;" d="M77 94Q68 94 63 102.50Q58 111 55.50 122Q53 133 53 143.50Q53 154 53 158Q53 197 71 221Q89 245 115.50 257.50Q142 270 172.50 274.50Q203 279 229 279Q241 279 251 278.50Q261 278 269 277Q278 276 285 275Q320 269 354 258Q364 279 377.50 303Q391 327 404.50 346.50Q418 366 432 379Q446 392 458 392Q475 392 487.50 382.50Q500 373 500 363Q500 357 499.50 357Q499 357 496.50 357Q494 357 488.50 354Q483 351 474 338.50Q465 326 451 300.50Q437 275 417 231Q451 212 475 190Q499 168 516 146Q517 148 524.50 167Q532 186 544 213.50Q556 241 571.50 272.50Q587 304 604 330.50Q621 357 638.50 374.50Q656 392 672 392Q688 392 700 382.50Q712 373 712 363Q712 354 710.50 356Q709 358 703.50 357Q698 356 688.50 346.50Q679 337 663 305Q643 266 626.50 227.50Q610 189 597.50 149Q585 109 577.50 66.50Q570 24 569-23Q569-39 571-61Q573-83 577.50-103Q582-123 589-137Q596-151 607-151Q613-151 617-146.50Q621-142 623.50-136.50Q626-131 627-126Q628-121 628-121Q611-114 603.50-100.50Q596-87 596-73Q596-54 608-38Q620-22 640-22Q658-22 666.50-30.50Q675-39 678.50-48.50Q682-58 682.50-66.50Q683-75 686-75Q695-75 724-69.50Q753-64 789-57Q825-50 862.50-43Q900-36 928-33Q938-32 947.50-31.50Q957-31 966-31Q1010-31 1037.50-43.50Q1065-56 1065-88Q1065-111 1052.50-129.50Q1040-148 1029-148Q1023-148 1023-143Q1023-141 1023.50-139.50Q1024-138 1024-136Q1024-117 998-110Q972-103 933-103Q894-103 848-108.50Q802-114 763-120Q716-127 671-136Q666-159 655-171.50Q644-184 632.50-190Q621-196 611-197.50Q601-199 599-199Q562-199 539-179.50Q516-160 502.50-132.50Q489-105 484-74.50Q479-44 479-21Q479 3 480.50 19.50Q482 36 484.50 48Q487 60 490 70Q493 80 497 91Q478 114 452.50 134.50Q427 155 394 170Q375 133 367 84.50Q359 36 359-9Q359-52 365.50-79Q372-106 372-114Q372-120 367.50-121.50Q363-123 358-123Q333-119 316-105.50Q299-92 288.50-74Q278-56 273.50-36.50Q269-17 269-1Q269 46 287 96.50Q305 147 323 191Q295 196 268 196Q217 196 183 183.50Q149 171 128 155.50Q107 140 98 126.50Q89 113 89 110Q89 99 84 96.50Q79 94 80 94L77 94M635-51Q627-51 627-61Q627-66 630.50-70.50Q634-75 642-75L642-68Q642-63 641-57Q640-51 635-51Z"  horiz-adv-x="611" vert-adv-y="500"  />

      
      <glyph glyph-name="uni49" unicode="&#x49;" d="M101 224Q91 217 74 217Q57 217 40 240Q32 252 34 273Q36 294 48 319.50Q60 345 83 372Q106 399 140 422Q174 446 200.50 450Q227 454 246.50 446.50Q266 439 278 424Q290 409 295 394Q304 364 293.50 327.50Q283 291 268 263Q260 249 242.50 212.50Q225 176 207.50 131Q190 86 179 39.50Q168-7 173-40Q174-43 174-47Q174-54 166-58Q155-63 139-62Q123-61 106-47Q97-41 93-21Q89-1 92.50 30Q96 61 110 103.50Q124 146 152 197Q174 239 194.50 270.50Q215 302 228.50 326.50Q242 351 247 369.50Q252 388 244 403Q239 413 226 410.50Q213 408 196.50 396.50Q180 385 162 366.50Q144 348 130 327Q116 306 108 284Q100 262 103 243Q107 241 108 237Q110 229 101 224Z"  horiz-adv-x="234" vert-adv-y="500"  />

      
      <glyph glyph-name="uni4a" unicode="&#x4a;" d="M72-104Q46-89 31.50-62Q17-35 19 0Q20 32 30.50 53.50Q41 75 49 83Q67 107 89.50 114Q112 121 132 119Q132 119 145 117Q153 115 161 111.50Q169 108 177 100Q185 91 187 82Q189 76 186 73.50Q183 71 180 72Q152 76 133 61Q114 46 106 25Q98 4 101.50-17Q105-38 122-47Q124-48 125-48Q126-48 127-49Q158-55 185.50-34Q213-13 236.50 22Q260 57 279.50 101.50Q299 146 312.50 188Q326 230 333.50 263Q341 296 342 309Q324 300 306 289Q288 278 273 268Q262 261 253.50 255.50Q245 250 240 247Q207 226 176.50 218.50Q146 211 122 231Q108 242 102 257Q97 270 99 289Q101 308 121 333Q125 337 129.50 339Q134 341 138 335Q143 324 157 315.50Q171 307 203 318Q204 318 205 319Q205 319 211 321Q218 324 229.50 329.50Q241 335 254.50 340.50Q268 346 281.50 351.50Q295 357 306 361Q307 361 307.50 361.50Q308 362 309 362Q314 364 332 370Q339 372 349 375Q359 378 370 380Q387 382 402 379Q417 376 424 361Q425 360 426 358Q428 354 428 347Q427 341 425 333.50Q423 326 417 318Q413 313 410 313Q407 313 405 314Q400 318 390 319Q393 294 385.50 256Q378 218 367 179Q356 140 343.50 106Q331 72 324 54Q309 16 291.50-22.50Q274-61 241-91Q235-97 218.50-106Q202-115 179.50-120Q157-125 129.50-123Q102-121 72-104Z"  horiz-adv-x="369" vert-adv-y="500"  />

      
      <glyph glyph-name="uni4b" unicode="&#x4b;" d="M123 90Q85 96 64 109.50Q43 123 36 138Q29 153 34.50 167.50Q40 182 55 189Q69 196 84.50 197Q100 198 113.50 195.50Q127 193 138 189.50Q149 186 155 184Q157 191 159 195.50Q161 200 162 204Q171 227 183 254Q195 281 201 294Q202 296 202 297.50Q202 299 203 300Q203 301 204 302Q210 318 210.50 329.50Q211 341 208.50 348.50Q206 356 201 360.50Q196 365 190 367Q184 372 186 376.50Q188 381 192 384Q217 404 234 406Q251 408 262 403Q274 397 282 384Q302 360 294.50 329Q287 298 266 265Q266 265 264 261Q260 255 249 236.50Q238 218 231 205Q216 169 207 139Q240 151 263.50 174.50Q287 198 302.50 223.50Q318 249 326 271.50Q334 294 336 303Q339 313 346 315.50Q353 318 362 315Q371 312 380 304.50Q389 297 396 288Q404 277 406 266.50Q408 256 406 247Q404 236 399 226Q394 217 382.50 201Q371 185 351.50 166.50Q332 148 304.50 130.50Q277 113 242 102Q273 70 302.50 39Q332 8 358-10Q387-29 417-32.50Q447-36 465-35Q470-35 474.50-37Q479-39 477-47Q473-57 465-71Q457-85 445-97.50Q433-110 417-118Q401-126 381-124Q355-122 331-100.50Q307-79 284.50-48Q262-17 241.50 19Q221 55 202 85Q200 89 198 91L198 90Q190 44 185 13.50Q180-17 185-31L185-33Q186-35 186-39.50Q186-44 181-46Q136-67 118.50-65.50Q101-64 97-29Q95-13 103.50 20.50Q112 54 123 90M145 156Q123 167 108.50 165.50Q94 164 97 151Q99 140 110.50 135.50Q122 131 136 129Q138 137 140.50 143Q143 149 145 156Z"  horiz-adv-x="376" vert-adv-y="500"  />

      
      <glyph glyph-name="uni4c" unicode="&#x4c;" d="M28-129Q25-125 25-120Q23-113 22-98Q21-83 32-60Q38-47 55-28Q55-22 56.50 4Q58 30 61.50 65Q65 100 72.50 140.50Q80 181 93 217Q106 253 128 287Q150 321 177.50 346.50Q205 372 237.50 385Q270 398 303 392Q336 386 350 358.50Q364 331 360 295.50Q356 260 334 224Q312 188 273 165Q263 160 252 158Q243 156 232.50 157Q222 158 212 166Q206 171 203 179.50Q200 188 201 197Q202 206 206 214Q210 222 217 226Q219 227 221.50 227.50Q224 228 226 224Q228 219 233 215.50Q238 212 248 219Q255 223 268.50 240.50Q282 258 293.50 279Q305 300 310.50 319.50Q316 339 307 349Q297 360 278 349Q259 338 238.50 314Q218 290 198.50 258Q179 226 167 195Q148 142 139 99.50Q130 57 127 32Q155 49 186.50 61Q218 73 250 74Q267 74 282 69Q295 64 306 52Q317 40 320 17Q321 1 317-12Q314-23 305.50-35Q297-47 279-53Q274-55 272.50-52Q271-49 271-47Q272-46 272-45Q272-39 271.50-32Q271-25 267-18Q263-11 255-6Q247-1 234 1Q222 2 204.50 0Q187-2 166-11.50Q145-21 122-39.50Q99-58 77-89Q72-96 68-102Q64-107 60-113Q56-119 53-124Q53-125 52-127Q51-129 50-131L49-132L49-133Q44-138 41-138Q37-138 34-135Q33-134 32.50-134Q32-134 31-133Q31-132 30-132Q30-131 29.50-131Q29-131 29-130L28-129L28-129Z"  horiz-adv-x="333" vert-adv-y="500"  />

      
      <glyph glyph-name="uni4d" unicode="&#x4d;" d="M91 150Q65 148 51 162Q37 176 34 197Q32 206 33.50 222Q35 238 45 259.50Q55 281 77 306.50Q99 332 140 359Q172 379 201 388Q226 396 250.50 393Q275 390 288 362Q293 352 294 337Q295 324 292.50 305.50Q290 287 279 261Q285 277 294 292Q302 305 312 319.50Q322 334 336 347Q347 357 355.50 354Q364 351 370.50 342Q377 333 381 321.50Q385 310 388 304Q388 303 388.50 301Q389 299 387 297Q379 287 372 274.50Q365 262 359 251Q352 238 345 223Q377 270 400.50 296Q424 322 441 335Q462 352 469 350.50Q476 349 483 341Q486 338 489.50 334.50Q493 331 496 326Q511 306 517 294Q519 292 519 288.50Q519 285 515 283Q492 269 475 248Q458 227 445.50 203.50Q433 180 424.50 157Q416 134 411 115Q408 105 405.50 95Q403 85 401 74L401 73Q400 69 399.50 65Q399 61 398 57Q397 52 396.50 47Q396 42 396 37Q394 28 393 12.50Q392-3 391-23Q391-50 394.50-79.50Q398-109 410-132Q414-140 418.50-145.50Q423-151 429-151Q435-152 439-147Q443-142 445-136Q448-129 450-121Q430-113 423-96.50Q416-80 419-63.50Q422-47 433.50-34.50Q445-22 462-22Q479-22 487.50-30Q496-38 500-48Q504-59 505-74Q508-76 536-71Q564-66 601.50-58.50Q639-51 679.50-43.50Q720-36 750-33Q780-30 805.50-31.50Q831-33 850-40Q869-47 878.50-59.50Q888-72 887-93Q885-115 876-127.50Q867-140 856-146Q852-149 848-147Q844-146 846-139L846-131Q846-129 845-128Q840-117 822.50-111Q805-105 779.50-103.50Q754-102 723-103.50Q692-105 660-109Q585-118 493-136Q488-161 478-173.50Q468-186 457-192Q445-199 431-199Q396-197 373.50-180.50Q351-164 338-138Q323-111 317.50-83Q312-55 311-29.50Q310-4 313 16.50Q316 37 318 47Q323 72 330.50 97Q338 122 348 146Q350 150 358 171.50Q366 193 380 222Q348 182 330.50 145.50Q313 109 304.50 79Q296 49 294.50 27.50Q293 6 293-4Q293-9 291-10Q289-11 287-11Q275-10 268-8Q261-6 258-4Q254-2 253 0Q238 7 231 21Q224 35 223.50 52.50Q223 70 227 90.50Q231 111 238 131Q254 178 284 233Q262 207 244 178Q228 153 212 121.50Q196 90 188 58Q177 18 182-10Q187-38 192-50Q193-55 190-57.50Q187-60 185-61Q174-64 165.50-63.50Q157-63 151-61Q144-59 139-56Q108-41 103.50-7.50Q99 26 110 67.50Q121 109 142.50 153Q164 197 186 234Q208 271 225 295.50Q242 320 244 322Q249 330 246 332Q244 334 241 334Q239 334 238 333Q201 318 177.50 296.50Q154 275 140.50 254Q127 233 122 216.50Q117 200 116 196Q114 188 117 186.50Q120 185 122 185Q127 187 132 185Q134 183 134 181L134 179Q130 171 125 165Q120 160 112 155.50Q104 151 91 150M457-51Q453-51 451-55Q449-59 449.50-63.50Q450-68 453.50-71.50Q457-75 464-75L464-63Q463-58 462-54.50Q461-51 457-51Z"  horiz-adv-x="431" vert-adv-y="500"  />

      
      <glyph glyph-name="uni4e" unicode="&#x4e;" d="M709-33Q739-30 764.50-31.50Q790-33 808.50-40Q827-47 837-59.50Q847-72 846-93Q844-115 834.50-127.50Q825-140 814-146Q810-150 807-147Q804-146 804-139Q805-136 805-131Q805-129 804-128Q799-117 781.50-111Q764-105 738.50-103.50Q713-102 682-103.50Q651-105 619-109Q544-118 452-136Q447-161 437-173.50Q427-186 416-192Q404-199 390-199Q354-197 332-180.50Q310-164 297-138Q282-111 276.50-83Q271-55 270-29.50Q269-4 271.50 16.50Q274 37 276 47Q281 72 288 96Q295 120 306 149Q310 160 323 189.50Q336 219 354 251Q352 250 351.50 249Q351 248 349 247Q334 233 314 210.50Q294 188 273 156Q261 137 245.50 113Q230 89 217 62.50Q204 36 196 7.50Q188-21 191-50Q193-55 190-57.50Q187-60 185-61Q174-64 165-63.50Q156-63 150-61Q143-59 138-56Q107-41 103-7.50Q99 26 110 67.50Q121 109 142.50 153Q164 197 186 234Q208 271 224.50 295.50Q241 320 243 322Q249 329 246 332Q244 334 241 334Q239 334 238 333Q201 318 177.50 296.50Q154 275 140.50 254Q127 233 121.50 216.50Q116 200 115 196Q113 188 116.50 186.50Q120 185 122 185Q123 186 126 186.50Q129 187 131 185Q133 184 133 181L133 179Q130 171 125 165Q120 160 111.50 155.50Q103 151 90 150Q64 148 50.50 162Q37 176 34 197Q32 206 33.50 222Q35 238 44.50 259.50Q54 281 76 306.50Q98 332 139 359Q169 379 195 388Q218 396 241 393Q264 390 278 362Q281 355 283 346Q285 338 284.50 326.50Q284 315 281 299Q279 293 273 275Q271 270 268 263Q265 256 262 248Q252 229 235 193.50Q218 158 204 116Q233 165 280 222.50Q327 280 394 331Q396 333 397 333.50Q398 334 399 335Q421 352 428 350.50Q435 349 442 341Q445 338 448 334.50Q451 331 455 326Q461 317 466.50 308.50Q472 300 476 294Q477 292 477.50 288.50Q478 285 474 283Q451 269 434 248Q417 227 404 203.50Q391 180 382.50 157Q374 134 369 115Q367 105 364 90Q361 75 354 37Q353 28 351.50 12.50Q350-3 350-23Q349-50 353-79.50Q357-109 368-132Q372-140 377-145.50Q382-151 387-151Q393-152 397.50-147Q402-142 404-136Q407-129 408-121Q388-113 381.50-96.50Q375-80 378-63.50Q381-47 392-34.50Q403-22 420-22Q437-22 446-30Q455-38 459-48Q463-59 463-74Q466-76 494-71Q522-66 559.50-58.50Q597-51 638-43.50Q679-36 709-33M423-75Q424-68 423-63Q422-58 420.50-54.50Q419-51 415-51Q411-51 409-55Q407-59 407.50-63.50Q408-68 411.50-71.50Q415-75 423-75Z"  horiz-adv-x="391" vert-adv-y="500"  />

      
      <glyph glyph-name="uni4f" unicode="&#x4f;" d="M585 202Q585 195 577.50 184Q570 173 566 168Q552 151 518.50 116.50Q485 82 433 50Q404 8 373.50-20.50Q343-49 312.50-66Q282-83 253.50-89.50Q225-96 202-94Q180-93 163-82Q149-73 136.50-54.50Q124-36 125-1Q125 14 128 31Q102 52 93.50 82Q85 112 86 143Q87 174 95 203Q103 232 112 251Q122 274 144 308.50Q166 343 203 372Q240 401 292 416.50Q344 432 414 419Q463 405 490 371Q502 356 510 335Q518 314 518.50 285.50Q519 257 511 220.50Q503 184 482 138Q480 131 476.50 125Q473 119 471 114Q498 134 522 155Q546 176 566 196Q571 199 577 204Q583 209 585 202M201-60Q215-64 245.50-50Q276-36 308 1Q290-2 266-3.50Q242-5 222-4Q214-3 206.50-2.50Q199-2 191 0Q180-34 186.50-46Q193-58 201-60M388 121Q421 183 433 234Q438 256 439.50 277.50Q441 299 435.50 317Q430 335 416 347.50Q402 360 377 365Q340 371 303 360Q271 351 236 324.50Q201 298 173 240Q168 229 161 209Q154 189 152 164Q147 135 156 108Q170 136 189.50 162Q209 188 232 208Q255 228 281 239.50Q307 251 334 251Q352 250 365 242Q376 235 384 221.50Q392 208 388 183Q386 175 382 168Q379 162 375 157Q371 152 365 152Q359 152 355.50 155.50Q352 159 349 163.50Q346 168 342 171Q338 174 331 172Q325 170 312 161.50Q299 153 282 137.50Q265 122 246.50 98.50Q228 75 211 45Q218 43 223.50 42Q229 41 236 40Q261 37 291 39.50Q321 42 344 49Q366 79 388 121Z"  horiz-adv-x="493" vert-adv-y="500"  />

      
      <glyph glyph-name="uni50" unicode="&#x50;" d="M190-56Q191-56 191-57Q191-59 190-63.50Q189-68 184-71Q137-91 108-87.50Q79-84 81-49Q82-40 86.50-25Q91-10 98.50 8Q106 26 115.50 46.50Q125 67 135 87Q115 92 99 100.50Q83 109 83 126Q82 144 91 157.50Q100 171 115 179.50Q130 188 149 191.50Q168 195 188 192Q200 214 214.50 238Q229 262 236 274Q238 278 240 280Q241 281 241 282Q247 295 248.50 305Q250 315 248 323Q225 313 205.50 299Q186 285 171.50 269.50Q157 254 148 238.50Q139 223 138 211Q137 204 133 200Q127 197 123 199Q114 202 104.50 205.50Q95 209 88.50 216.50Q82 224 81.50 236.50Q81 249 90 270Q107 308 137 339Q162 365 205.50 387Q249 409 316 411Q370 412 402.50 394Q435 376 449 348.50Q463 321 459.50 287Q456 253 437 222Q416 187 384 159Q357 134 315 112Q273 90 213 83Q211 79 211 77Q209 74 208.50 71Q208 68 206 65Q191 19 189.50-11.50Q188-42 190-56M283 334Q296 331 308 325.50Q320 320 326 310.50Q332 301 330.50 287Q329 273 315 254Q312 251 310 247.50Q308 244 305 241Q304 240 303.50 239Q303 238 301 237Q299 234 294 227Q289 220 283 212Q277 204 270.50 195.50Q264 187 260 180Q251 164 243 149Q235 134 229 120Q243 124 257.50 130Q272 136 287 145Q317 163 337 181Q357 199 369.50 216.50Q382 234 387.50 250Q393 266 395 280Q397 293 392 305.50Q387 318 374 326.50Q361 335 339 338Q317 341 285 335Q284 335 283 334M150 119Q155 130 159.50 139Q164 148 169 156Q153 155 145 148Q137 141 137 133Q137 123 150 119Z"  horiz-adv-x="386" vert-adv-y="500"  />

      
      <glyph glyph-name="uni51" unicode="&#x51;" d="M398 429Q448 415 477 381Q489 366 498.50 345Q508 324 510.50 295.50Q513 267 506.50 230.50Q500 194 482 148Q477 132 472 124Q499 144 521.50 165Q544 186 563 206Q567 209 573.50 214Q580 219 580 212Q582 205 575 194Q568 183 564 178Q551 161 519.50 126.50Q488 92 438 60Q396-5 349.50-38.50Q303-72 261-81Q279-86 300-93.50Q321-101 332-105Q334-106 336-106Q337-106 338-107Q362-114 373-106.50Q384-99 387-90Q391-85 394.50-86.50Q398-88 400-90Q415-108 417-122.50Q419-137 415-148Q411-160 400-171Q383-186 363-184.50Q343-183 321-172.50Q299-162 276.50-146.50Q254-131 233-118Q216-108 205-104.50Q194-101 181-101Q178-101 170.50-101.50Q163-102 154.50-104.50Q146-107 138-113Q130-119 126-130Q126-131 124-132Q124-134 123.50-136Q123-138 123-141Q119-154 109-150Q101-148 99-143Q97-138 96-133Q95-127 97-120Q102-97 118.50-85.50Q135-74 156-70Q161-69 166.50-68.50Q172-68 177-68Q164-58 154-40Q144-22 142 9Q139 22 143 41Q119 60 110.50 89Q102 118 103 149.50Q104 181 111 210.50Q118 240 126 259Q132 274 144.50 295Q157 316 175 337Q193 358 217 377.50Q241 397 269 411Q297 425 329.50 430.50Q362 436 398 429M222-50Q238-54 262-40Q286-26 316 11Q278 5 241 6Q233 7 225 7.50Q217 8 210 10Q205-7 205-18Q205-29 207.50-36Q210-43 214.50-46Q219-49 222-50M390 131Q418 193 428 244Q432 266 432.50 287.50Q433 309 426.50 327Q420 345 405 357.50Q390 370 365 375Q329 381 295 370Q266 361 233 334.50Q200 308 176 250Q163 220 158.50 186.50Q154 153 166 118Q179 146 196.50 172Q214 198 236 218Q258 238 283 249.50Q308 261 335 261Q354 260 368 252Q380 245 389 231.50Q398 218 396 193Q394 185 391 178Q389 172 385 167Q381 162 375 162Q368 162 364.50 165.50Q361 169 357.50 173.50Q354 178 350 181Q346 184 339 182Q333 180 321.50 173.50Q310 167 296 153.50Q282 140 266 118.50Q250 97 236 67Q252 55 284 51.50Q316 48 349 59Q359 75 369 92.50Q379 110 390 131Z"  horiz-adv-x="496" vert-adv-y="500"  />

      
      <glyph glyph-name="uni52" unicode="&#x52;" d="M111 52Q76 58 58.50 71.50Q41 85 37 100Q33 115 41 128.50Q49 142 65 149Q79 155 93.50 156.50Q108 158 120.50 156.50Q133 155 143.50 152Q154 149 160 146Q164 144 166 144Q168 143 169 143Q169 142 170 142Q175 153 180 160.50Q185 168 187 173Q200 196 216.50 222.50Q233 249 241 263Q243 267 245 269L247 271Q253 284 255 297Q231 288 210.50 273.50Q190 259 174.50 243Q159 227 149 211Q139 195 138 183Q137 175 132 172Q127 169 123 171Q114 174 104.50 178Q95 182 89 190Q83 198 82.50 211Q82 224 91 245Q107 283 137 314Q162 340 205.50 362Q249 384 315 386Q369 387 401.50 370.50Q434 354 447.50 327.50Q461 301 457 268Q453 235 434 203Q418 174 392 148Q370 125 337 102.50Q304 80 259 66Q282 40 303.50 16.50Q325-7 346-21Q372-38 401.50-41Q431-44 449-43Q454-43 458-45Q462-47 459-54Q453-63 443-75Q433-87 419-98.50Q405-110 388-117.50Q371-125 351-123Q325-121 305-102Q285-83 267.50-56Q250-29 235.50 3Q221 35 207 62Q205 56 205 55Q188 9 186-22Q184-53 186-67L186-68Q186-70 185-74.50Q184-79 179-82Q131-102 104.50-98.50Q78-95 81-60Q83-45 95-14.50Q107 16 124 50Q119 50 111 52M261 169Q250 152 241 135.50Q232 119 224 104Q227 102 229 100Q231 98 234 95Q245 99 257.50 104Q270 109 282 117Q343 152 366 188Q389 224 392 252Q396 274 379 292.50Q362 311 318 310Q331 301 333 285Q335 269 316 243Q314 240 311 237Q308 234 305 230Q305 230 303 226Q300 223 295 216Q290 209 283.50 201Q277 193 271 184.50Q265 176 261 169M145 119Q126 128 113 125.50Q100 123 101 112Q101 102 110 97Q119 92 131 90Q134 90 137 89.50Q140 89 143 89L155 113Q153 115 150 116Q147 117 145 119Z"  horiz-adv-x="411" vert-adv-y="500"  />

      
      <glyph glyph-name="uni53" unicode="&#x53;" d="M403 200Q401 195 395 188Q389 181 377 177Q362 173 330 164Q298 155 257 139Q262 113 262.50 84.50Q263 56 256 24Q243-35 214.50-69.50Q186-104 154-119.50Q122-135 91.50-136Q61-137 44-128Q23-117 14-100.50Q5-84 4.50-65.50Q4-47 10.50-27Q17-7 26 10Q32 22 44 38Q56 54 73.50 72.50Q91 91 115 110.50Q139 130 169 147Q164 171 156 193.50Q148 216 137 236Q127 256 125 280.50Q123 305 132 327.50Q141 350 161 368Q181 386 215 393Q241 398 258 394Q275 390 286 382Q298 373 305 360Q311 366 318 374Q323 381 330 390Q337 399 344 410Q346 416 350 420Q358 428 366 424Q368 423 374 418.50Q380 414 384.50 405.50Q389 397 389.50 383Q390 369 380 350Q369 330 352.50 312Q336 294 318 282Q300 270 283.50 265Q267 260 258 266Q249 272 246.50 277Q244 282 245.50 286.50Q247 291 250.50 295Q254 299 256 303Q259 309 261 317.50Q263 326 262 333.50Q261 341 256.50 346Q252 351 242 351Q233 351 226 343.50Q219 336 214.50 324.50Q210 313 209 299.50Q208 286 212 274Q216 258 226 235.50Q236 213 246 183Q278 193 314.50 199Q351 205 393 206L395 206Q397 206 400.50 205Q404 204 403 200M153 14Q171 54 173 92Q126 63 90.50 21.50Q55-20 49-75Q69-73 87-63Q103-55 121-37Q139-19 153 14Z"  horiz-adv-x="309" vert-adv-y="500"  />

      
      <glyph glyph-name="uni54" unicode="&#x54;" d="M353 315Q340 313 325 310.50Q310 308 293 304Q265 248 242.50 189Q220 130 207 67Q206 62 205.50 58.50Q205 55 204 51Q198 16 198.50-13.50Q199-43 202-64.50Q205-86 208.50-100.50Q212-115 212-120Q212-126 207.50-128Q203-130 198-129Q196-129 194.50-128.50Q193-128 192-128Q191-128 191-127Q169-119 154-105.50Q139-92 130-75.50Q121-59 117-41.50Q113-24 113-7Q113 16 118.50 43Q124 70 132 96Q132 124 128 150.50Q124 177 118.50 198Q113 219 108.50 231.50Q104 244 104 245Q62 231 42.50 240Q23 249 18 270Q15 285 20 299Q25 313 44 329Q54 338 66.50 342.50Q79 347 90.50 346.50Q102 346 111.50 340.50Q121 335 126 323Q127 321 127 319.50Q127 318 128 316Q128 315 129 314Q141 319 172 331.50Q203 344 243 357.50Q283 371 326 382Q369 393 404 396Q424 399 442 396Q459 393 473.50 385Q488 377 497 363Q502 358 505 350Q507 343 505.50 333Q504 323 495 310Q486 295 465 280Q460 278 455 277.50Q450 277 448 284Q447 295 438 306.50Q429 318 400 319Q393 319 385 318.50Q377 318 369 317Q364 317 354 315L353 315M56 292Q62 287 72.50 292Q83 297 94 302Q92 307 90 311Q88 314 85.50 317Q83 320 78 320Q71 320 65.50 316.50Q60 313 56.50 308.50Q53 304 52.50 299.50Q52 295 56 292M198 245Q203 255 208 264Q213 273 218 282Q198 276 179 270Q160 264 145 259Q147 247 149 233.50Q151 220 153 203Q155 193 156 183Q157 173 158 164Q172 196 183 217.50Q194 239 198 245Z"  horiz-adv-x="228" vert-adv-y="500"  />

      
      <glyph glyph-name="uni55" unicode="&#x55;" d="M816-146Q814-145 813.50-143Q813-141 813-139Q814-136 814-131Q814-129 813-128Q808-117 790.50-111Q773-105 747.50-103.50Q722-102 691-104Q660-106 628-109Q553-117 461-135Q456-160 444-172.50Q432-185 420-191Q406-198 389-198Q354-197 334.50-180Q315-163 302-138Q287-111 281.50-82.50Q276-54 275-28.50Q274-3 277 17Q280 37 282 48Q286 71 294 97Q275 49 261 12Q247-25 221-47Q206-61 191-65.50Q176-70 162-69Q136-67 121-56.50Q106-46 98-35Q96-31 94.50-27.50Q93-24 91-20Q89-17 89-14.50Q89-12 88-10Q87-8 87-6Q82 21 90.50 55.50Q99 90 114.50 125.50Q130 161 149 195.50Q168 230 185 257.50Q202 285 214.50 302.50Q227 320 228 322Q233 330 231 332Q227 334 226 334Q224 334 223 333Q186 318 162.50 296.50Q139 275 125.50 254Q112 233 106.50 216.50Q101 200 100 196Q98 188 101 186.50Q104 185 106 185Q111 187 116 185Q118 183 118 181L118 179Q114 171 109 165Q104 160 96 155.50Q88 151 75 150Q49 148 35.50 162Q22 176 18 197Q16 206 17.50 222Q19 238 29 259.50Q39 281 61 306.50Q83 332 124 359Q156 379 185 388Q210 396 234.50 393Q259 390 272 362Q275 355 277 346Q279 338 278.50 326.50Q278 315 275 299Q274 296 272.50 289.50Q271 283 268 275Q266 270 263 263Q260 256 256 248Q251 237 241.50 221Q232 205 221.50 185Q211 165 200 142.50Q189 120 182 97Q178 84 174 68.50Q170 53 168 38Q164 20 163.50 5.50Q163-9 167-15Q168-17 173-19Q183-24 195-12.50Q207-1 218 16Q230 35 243 62Q268 116 295.50 164Q323 212 347 250.50Q371 289 389 314.50Q407 340 413 349Q434 376 451 389Q453 390 456 391Q462 393 471 393Q474 392 478 391Q482 390 487 388Q495 385 499 381Q509 371 507 362Q507 360 506 359Q503 356 500 356Q495 354 484.50 341.50Q474 329 462 311Q460 309 460 308Q459 307 459 306.50Q459 306 458 305Q431 251 406 193Q381 135 369 74L369 73L366 58Q365 53 364.50 48Q364 43 363 38Q362 29 360.50 13Q359-3 359-23Q359-49 362.50-78.50Q366-108 378-131Q386-150 397-151Q403-151 407-146.50Q411-142 413-136Q416-129 418-120Q398-112 391-95.50Q384-79 387-62.50Q390-46 401-33.50Q412-21 429-21Q446-21 455-29Q464-37 468-47Q472-58 473-73Q476-75 503.50-70Q531-65 568.50-57.50Q606-50 647-43Q688-36 718-33Q748-30 773.50-31.50Q799-33 818-39.50Q837-46 846.50-59Q856-72 855-92Q853-115 843.50-127Q834-139 824-146Q819-148 816-146M432-74Q433-67 432-62Q431-57 429.50-53.50Q428-50 424-50Q420-50 418-54Q416-58 417-62.50Q418-67 421.50-70.50Q425-74 432-74Z"  horiz-adv-x="410" vert-adv-y="500"  />

      
      <glyph glyph-name="uni56" unicode="&#x56;" d="M649 433Q676 436 699.50 434.50Q723 433 739.50 427Q756 421 765 409.50Q774 398 772 379Q769 359 760 347Q751 335 741 330Q739 328 737.50 328.50Q736 329 734 329Q732 331 732 336L732 343L732 346Q727 359 705.50 364Q684 369 653 369Q622 369 585.50 365.50Q549 362 516 358Q515 358 514.50 357.50Q514 357 513 357Q506 356 500 355.50Q494 355 488 353Q467 351 451 349.50Q435 348 423 348Q420 320 411 274Q403 229 389 182Q375 135 358 98Q325 28 291.50-10.50Q258-49 229-67Q214-77 200-82L199-82Q199-83 198-83Q194-85 190.50-85.50Q187-86 184-87Q184-87 183-88Q173-90 165-91Q157-92 151-92Q144-92 139-91Q110-86 100-70.50Q90-55 86-39Q85-36 85-31L85-28Q85-25 84-24L84-7Q86 24 99 62.50Q112 101 130.50 140.50Q149 180 170.50 217Q192 254 210 283.50Q228 313 241 331.50Q254 350 255 352Q262 360 258 362Q256 364 253 364Q251 364 250 363Q212 348 188 326.50Q164 305 149.50 284Q135 263 129 246.50Q123 230 122 226Q120 218 123 216.50Q126 215 128 215Q133 217 138 215Q140 213 140 211Q140 210 139 209Q136 201 130 195Q125 190 116.50 185.50Q108 181 95 180Q69 178 55.50 192Q42 206 40 227Q39 236 40.50 252Q42 268 53 289.50Q64 311 87.50 336.50Q111 362 153 389Q185 409 213 418Q237 426 260.50 423Q284 420 296 392Q298 385 300 376Q301 368 301 356.50Q301 345 297 329Q295 326 293.50 319.50Q292 313 288 305Q286 300 283 293Q280 286 275 278Q269 267 258 243Q247 219 234 189Q221 159 209 128.50Q197 98 189 75Q185 65 185 63Q183 57 180 45.50Q177 34 174.50 22Q172 10 172-0.50Q172-11 177-16Q179-18 180-18Q181-19 183-19Q184-19 184.50-19.50Q185-20 187-20Q201-20 219-8Q230-2 240.50 7Q251 16 261 26Q266 31 269.50 35.50Q273 40 277 45Q295 71 315 109Q335 147 355 204Q370 246 376 284.50Q382 323 384 350Q378 350 374 352Q372 353 371 353Q353 360 347.50 375.50Q342 391 345 406Q348 421 358.50 432.50Q369 444 385 444Q402 444 410.50 435Q419 426 421 416Q423 411 424 396Q430 395 456 400Q482 405 516 411.50Q550 418 586 424.50Q622 431 649 433M385 395Q386 401 386 406Q386 410 384.50 413.50Q383 417 379 417Q376 417 374 413.50Q372 410 372 406Q372 402 375 398.50Q378 395 385 395Z"  horiz-adv-x="377" vert-adv-y="500"  />

      
      <glyph glyph-name="uni57" unicode="&#x57;" d="M104 190Q78 188 65 202Q52 216 50 237Q49 246 50.50 262Q52 278 63 299.50Q74 321 97 346.50Q120 372 162 399Q194 419 222 428Q234 432 246.50 433.50Q259 435 270 432.50Q281 430 290.50 423Q300 416 306 402Q308 395 310 386Q311 378 311 366.50Q311 355 307 339Q305 336 303 329.50Q301 323 298 315Q296 310 292.50 303Q289 296 285 288Q279 277 268 253Q257 229 244 199Q231 169 219 138.50Q207 108 199 85Q197 81 196 78Q195 75 194 73Q192 67 189.50 55.50Q187 44 184.50 32Q182 20 182 9.50Q182-1 187-6Q187-8 190-8Q190-9 192-9Q194-9 194.50-9.50Q195-10 196-10Q211-10 228 2Q243 10 258 25Q259 48 264.50 75Q270 102 277.50 128Q285 154 293.50 178Q302 202 309 219Q330 267 350.50 294Q371 321 389 333.50Q407 346 422 347Q437 348 446 344Q455 339 459 329.50Q463 320 465 310Q467 299 465 285Q457 227 427 171.50Q397 116 361 70Q356 62 350 55.50Q344 49 339 42Q341 8 355-6Q355-8 358-8Q358-9 360-9Q362-9 362.50-9.50Q363-10 364-10Q379-10 396 2Q407 8 418 17Q429 26 439 36Q443 41 446.50 45.50Q450 50 454 55Q473 81 492.50 119Q512 157 532 214Q548 256 554 294.50Q560 333 562 360Q555 360 551 362L549 363Q531 370 525 385.50Q519 401 522 416Q525 431 536 442.50Q547 454 562 454Q580 454 588 445Q596 436 598 426Q599 424 600 419Q601 414 601 406Q607 405 633.50 410Q660 415 694 421.50Q728 428 764 434.50Q800 441 827 443Q854 446 877.50 444.50Q901 443 917.50 437Q934 431 943 419.50Q952 408 950 389Q947 369 938 357Q929 345 919 340Q916 338 914.50 338.50Q913 339 912 339Q908 342 910 346L910 353Q910 355 909 356Q905 369 883 374Q861 379 830 379Q799 379 763 375.50Q727 372 694 368Q693 368 692.50 367.50Q692 367 691 367Q684 366 678 365.50Q672 365 666 363Q645 361 629 359.50Q613 358 600 358Q598 343 596 325Q594 307 589 284Q581 239 567 192Q553 145 536 108Q502 38 469-0.50Q436-39 407-57Q393-67 377-72L376-73Q372-75 368.50-75.50Q365-76 362-77Q361-77 361-78L360-78Q350-80 342-81Q334-82 329-82Q322-82 317-81Q293-76 280.50-65Q268-54 263-40Q257-44 254-47L253-47Q250-50 246.50-52.50Q243-55 239-57Q231-62 226-66Q221-70 214-72L213-73Q209-75 203-75.50Q197-76 194-77Q193-77 193-78L192-78Q182-80 174-81Q166-82 161-82Q154-82 149-81Q120-76 110-60.50Q100-45 96-29Q95-26 95-21L95-18Q94-17 94-14Q93-9 93-5Q93-1 93 3Q95 34 108 72.50Q121 111 139.50 150.50Q158 190 179.50 227Q201 264 219.50 293.50Q238 323 250.50 341.50Q263 360 264 362Q271 369 268 372Q266 374 263 374Q261 374 260 373Q222 358 197.50 336.50Q173 315 159 294Q145 273 138.50 256.50Q132 240 131 236Q129 228 132.50 226.50Q136 225 138 225Q139 226 142 226.50Q145 227 147 225Q149 224 149 221Q149 220 148 219Q145 211 139 205Q134 200 125.50 195.50Q117 191 104 190M563 416Q563 420 561.50 423.50Q560 427 557 427Q553 427 551 423.50Q549 420 549.50 416Q550 412 553 408.50Q556 405 563 405L563 416M429 320Q422 321 410.50 302.50Q399 284 386.50 254Q374 224 362.50 187Q351 150 345 114Q361 134 378 158Q395 182 408.50 206.50Q422 231 431 255Q440 279 440 299Q440 305 439 309Q437 319 429 320Z"  horiz-adv-x="551" vert-adv-y="500"  />

      
      <glyph glyph-name="uni58" unicode="&#x58;" d="M59-62Q38-42 28-12Q18 18 28 52Q36 84 52 101.50Q68 119 76 127Q99 146 122.50 147Q146 148 165 142Q166 141 169.50 140Q173 139 178 137Q184 133 192 127.50Q200 122 205 113Q209 106 211 93Q211 87 207.50 86Q204 85 202 86Q196 88 186.50 89.50Q177 91 166 89Q159 88 139.50 80.50Q120 73 103 46Q83 14 87-8.50Q91-31 101-37Q102-38 102.50-38Q103-38 104-39Q112-43 126-38Q140-33 155.50-23.50Q171-14 185.50-3Q200 8 210 17Q261 62 300 107Q299 121 298.50 135Q298 149 298 164Q299 210 302.50 246Q306 282 306.50 309.50Q307 337 303 355.50Q299 374 284 384Q274 391 263.50 383Q253 375 243 357.50Q233 340 226 317Q219 294 216 269.50Q213 245 216 222Q219 199 231 184Q235 183 238 180Q244 174 239 166Q236 161 230.50 156Q225 151 217 148.50Q209 146 199 147Q189 148 176 155Q163 162 154.50 181.50Q146 201 145 228.50Q144 256 152 289Q160 322 180 357Q199 392 221 407Q243 422 264 423.50Q285 425 302.50 417Q320 409 332 398Q343 386 350.50 370.50Q358 355 362.50 338Q367 321 368.50 303.50Q370 286 370 271Q370 263 371 246.50Q372 230 374 207Q400 245 417.50 277.50Q435 310 447 336Q445 336 444.50 336.50Q444 337 443 337Q442 337 442 338Q424 345 417.50 360Q411 375 413.50 390Q416 405 426.50 416.50Q437 428 453 428Q463 428 469.50 425Q476 422 481 417Q487 410 490 400Q491 398 494 380Q501 380 527 385Q553 390 586.50 396.50Q620 403 655.50 409Q691 415 717 418Q744 421 767.50 419.50Q791 418 808 412Q825 406 834 394Q843 382 842 363Q840 343 831.50 331.50Q823 320 813 314Q809 312 806 314Q804 315 804 317Q804 319 804 321L804 328L804 331Q799 343 777 348.50Q755 354 724 354Q693 354 656.50 350.50Q620 347 587 342L584 342Q577 340 571 339.50Q565 339 559 338Q539 335 523 334Q507 333 494 332L487 332Q477 288 452.50 233.50Q428 179 386 116Q390 91 395 66Q400 41 406 18.50Q412-4 420-23Q428-42 438-55Q440-57 442-60Q446-66 440-74Q432-82 418-89Q404-96 382-91Q368-88 348-60.50Q328-33 313 16Q292-10 269-35.50Q246-61 221-76Q206-85 188.50-91Q171-97 152-98L152-99Q128-101 103.50-91Q79-81 59-62M448 402Q445 402 443 398.50Q441 395 441.50 391Q442 387 445 383.50Q448 380 455 380L455 391Q454 395 453 398.50Q452 402 448 402Z"  horiz-adv-x="447" vert-adv-y="500"  />

      
      <glyph glyph-name="uni59" unicode="&#x59;" d="M275-19Q283-20 293.50-7Q304 6 313 21Q324 39 335 62Q378 153 413.50 218Q449 283 466 311Q474 327 484.50 342.50Q495 358 507.50 370Q520 382 536 388Q552 394 571 391Q588 388 598 380.50Q608 373 613.50 364Q619 355 620.50 346Q622 337 622 330Q621 324 618 323.50Q615 323 613 325Q608 328 601.50 329Q595 330 586.50 327Q578 324 568 315Q558 306 548 287Q527 247 510 194Q493 141 475 85Q457 29 435.50-25.50Q414-80 384-122.50Q354-165 313-191.50Q272-218 215-218Q159-216 116-197Q98-189 80-176Q62-163 48.50-144Q35-125 26.50-99.50Q18-74 18-39Q17 5 28 39Q36 68 56 93.50Q76 119 114 122Q130 123 142 117Q153 112 160.50 99.50Q168 87 167 61Q165 52 161 52Q156 50 147.50 46Q139 42 130 32Q121 22 113 5Q105-12 102-38Q94-104 126-140Q158-176 210-178Q262-180 298.50-129.50Q335-79 370 22Q386 67 396 99Q406 131 413 155Q396 119 385 88.50Q374 58 363.50 33Q353 8 341.50-12Q330-32 313-47Q298-61 283-65.50Q268-70 254-69Q228-67 215-56.50Q202-46 194-35Q192-31 190.50-27.50Q189-24 187-20Q185-17 185-14.50Q185-12 184-10Q183-8 183-6Q178 21 186.50 55.50Q195 90 210.50 125.50Q226 161 245 195.50Q264 230 281 257.50Q298 285 310.50 302.50Q323 320 324 322Q329 330 326 332Q324 334 321 334Q319 334 318 333Q281 318 257.50 296.50Q234 275 220.50 254Q207 233 202 216.50Q197 200 196 196Q194 188 197 186.50Q200 185 202 185Q207 187 212 185Q214 183 214 181L214 179Q210 171 205 165Q200 160 192 155.50Q184 151 171 150Q145 148 131 162Q117 176 114 197Q112 206 113.50 222Q115 238 125 259.50Q135 281 157 306.50Q179 332 220 359Q251 379 279 388Q303 396 327 393Q351 390 364 362Q367 355 369 346Q371 338 370.50 326.50Q370 315 367 299Q366 296 364.50 289.50Q363 283 360 275Q358 270 355 263Q352 256 348 248Q337 227 318 185Q299 143 284 97Q280 84 276 68.50Q272 53 269 38Q266 20 265.50 5.50Q265-9 269-15Q271-19 275-19Z"  horiz-adv-x="494" vert-adv-y="500"  />

      
      <glyph glyph-name="uni5a" unicode="&#x5a;" d="M320 88Q326 90 330.50 87.50Q335 85 338 81Q342 77 345 70Q358 34 356.50 7Q355-20 343.50-39.50Q332-59 312.50-72.50Q293-86 271-95Q219-115 144-118Q105-118 72-112L71-112Q52-108 44.50-99.50Q37-91 35-89Q16-60 16-28Q15-11 18.50 4.50Q22 20 28 34Q35 51 57.50 77.50Q80 104 107 132.50Q134 161 159.50 186Q185 211 200 225Q217 242 250 272Q283 302 321 329Q286 322 257 315.50Q228 309 219 307Q181 298 150 301Q119 304 102 331Q92 346 92 362Q92 376 100.50 393Q109 410 136 427Q141 429 146 429.50Q151 430 153 423Q153 417 155.50 410.50Q158 404 164 398.50Q170 393 181 389.50Q192 386 209 386L211 386Q214 386 217 387Q224 388 245.50 389Q267 390 292 390.50Q317 391 341 392Q365 393 377 393L379 393Q381 393 387.50 393.50Q394 394 404 393Q411 394 421.50 393.50Q432 393 443 391Q460 388 471.50 381Q483 374 485 358L485 355Q485 353 485 350.50Q485 348 483 344Q478 330 463 319Q458 316 455.50 317Q453 318 451 319Q448 324 441 328Q434 326 412 315Q390 304 348 271Q327 252 307.50 232.50Q288 213 269 193Q267 191 265.50 189.50Q264 188 262 186Q261 185 261 184.50Q261 184 260 183Q257 180 256 178Q246 167 236 155.50Q226 144 217 132Q206 118 194 102.50Q182 87 170 70Q159 55 145.50 38Q132 21 120.50 3.50Q109-14 101.50-30.50Q94-47 97-60Q100-60 103.50-59.50Q107-59 111-59Q154-56 187.50-42Q221-28 245-11Q269 6 284.50 23.50Q300 41 306 51Q311 59 312 64Q313 69 313 71L313 73Q312 81 316 85Q318 87 320 88Z"  horiz-adv-x="376" vert-adv-y="500"  />

      
      <glyph glyph-name="uni61" unicode="&#x61;" d="M212 134Q201 111 194 86Q186 60 186.50 37.50Q187 15 201-5L203-9Q205-13 203-16Q201-22 190-20Q171-20 157-13Q145-8 135 5Q125 18 125 42Q108 20 85 4Q62-12 33-6Q13-2 4.50 10.50Q-4 23-5 40Q-6 57-0.50 77Q5 97 13.50 116Q22 135 32 151.50Q42 168 50 178Q64 197 85.50 215Q107 233 131 230Q135 229 141.50 227.50Q148 226 154 221Q165 213 167 200.50Q169 188 165 174L165 173L166 173Q175 180 187 175Q188 174 189 174Q206 165 211 150Q215 143 212 134M137 110Q140 121 144 132Q148 143 153 154Q148 149 142.50 145.50Q137 142 129 142Q120 142 119 145Q117 149 119 155Q119 155 122 158L123 159Q127 164 129.50 175Q132 186 123 192Q115 197 104 190Q93 183 82 169Q71 155 62 137Q53 119 50 103Q47 87 52 75Q57 63 74 62Q85 61 101.50 71.50Q118 82 132 94Q134 98 134.50 102Q135 106 137 110Z"  horiz-adv-x="219" vert-adv-y="500"  />

      
      <glyph glyph-name="uni62" unicode="&#x62;" d="M77 24Q80 17 81 12Q82 7 80 2.50Q78-2 73-4Q69-5 64.50-5Q60-5 55-5Q33-2 20 13Q9 26 4.50 52.50Q0 79 15 128Q22 153 31.50 174.50Q41 196 52 216Q47 217 42 218Q37 219 32 221Q-26 243-66 244.50Q-106 246-133 245Q-150 245-148 250.50Q-146 256-140 261Q-130 275-109.50 287Q-89 299-54 296Q-29 294-13 289Q3 284 16 277.50Q29 271 41.50 263.50Q54 256 73 248Q104 290 136.50 316Q169 342 193 354Q209 361 229.50 366Q250 371 269.50 369.50Q289 368 303.50 357.50Q318 347 321 324Q324 301 310.50 278Q297 255 269.50 237Q242 219 202 209.50Q162 200 113 205Q110 199 107 193.50Q104 188 101 182Q100 181 99 178Q98 176 97.50 173Q97 170 95 167Q99 170 102.50 173.50Q106 177 111 180Q129 193 147 197Q166 202 184 196Q206 188 215 165Q223 149 223.50 129Q224 109 219 89Q213 65 200 44Q187 23 167 9Q159 3 148 0Q139-3 127.50-3Q116-3 105 3Q94 9 88 19Q82 29 81.50 40.50Q81 52 84.50 63.50Q88 75 95 83Q100 89 111 94.50Q122 100 133 93Q139 90 135 80.50Q131 71 125.50 60.50Q120 50 117 41.50Q114 33 122 31Q129 29 138.50 49Q148 69 154.50 94.50Q161 120 162.50 143Q164 166 155 171Q145 176 129.50 166.50Q114 157 97 138Q85 126 77 114Q75 106 73 98Q71 90 71 83Q70 75 70.50 59Q71 43 77 24M230 308Q228 312 221.50 315.50Q215 319 202.50 313.50Q190 308 172 290.50Q154 273 130 234L140 234Q169 235 187 245Q205 255 215 267Q225 279 228 291Q231 303 230 308Z"  horiz-adv-x="229" vert-adv-y="500"  />

      
      <glyph glyph-name="uni63" unicode="&#x63;" d="M235 116Q241 110 234 99Q227 87 212.50 66.50Q198 46 176 27.50Q154 9 123.50-2Q93-13 54-6Q24-1 14 20.50Q4 42 7 70.50Q10 99 24 128.50Q38 158 56 180Q67 193 81 204.50Q95 216 110.50 223Q126 230 142 230.50Q158 231 173 222Q188 213 188.50 194.50Q189 176 180.50 156.50Q172 137 157 120Q142 103 127 98Q111 92 104 93.50Q97 95 94 99L93 100Q89 107 92.50 115Q96 123 104 131Q108 134 113.50 141.50Q119 149 122.50 158Q126 167 127 175Q128 183 125 188Q122 192 114.50 187.50Q107 183 99.50 173Q92 163 85 149Q78 135 75 120Q68 91 73.50 78Q79 65 95 62Q117 58 136.50 63Q156 68 172.50 77Q189 86 202 96Q215 106 223 114Q225 116 228.50 117Q232 118 235 116Z"  horiz-adv-x="211" vert-adv-y="500"  />

      
      <glyph glyph-name="uni64" unicode="&#x64;" d="M199 95Q190 66 188.50 37.50Q187 9 202-12L204-16Q206-21 205-23Q203-29 192-27Q173-25 159-17Q147-10 137 4Q127 18 127 42Q110 20 87 4Q64-12 35-6Q26-5 20 0L19 0Q17 1 16.50 1.50Q16 2 14 3L12 5Q10 6 9.50 7Q9 8 7 10Q-12 32-7 70Q-2 108 17 145Q36 182 64.50 210Q93 238 122 240L133 240Q137 239 143.50 237.50Q150 236 156 231Q161 228 164 223Q166 220 167 212Q168 204 170 201Q180 229 193.50 260.50Q207 292 222 319.50Q237 347 252 366.50Q267 386 281 389Q283 391 295 391Q302 391 311 390Q320 389 328.50 384.50Q337 380 344 371.50Q351 363 353 348L353 346Q353 344 352 343Q350 341 348.50 341Q347 341 345 340Q333 337 314 316Q295 295 274 261.50Q253 228 232.50 185Q212 142 199 95M145 130Q147 162 139 174Q131 186 125 190L124 190Q116 194 109 191.50Q102 189 98 187Q93 185 86.50 178.50Q80 172 74 163Q68 154 63 143Q58 132 55 120Q49 91 54.50 77.50Q60 64 76 62Q87 61 103.50 71.50Q120 82 134 94Q135 98 136 102Q137 106 138 110Q139 112 140 115Q141 118 142 121Q142 122 142.50 123Q143 124 143 126Q144 127 144 128Q144 129 145 130Z"  horiz-adv-x="225" vert-adv-y="500"  />

      
      <glyph glyph-name="uni65" unicode="&#x65;" d="M228 119Q234 114 226 103Q218 91 199.50 69Q181 47 155.50 27.50Q130 8 100-2.50Q70-13 40-3Q12 6 3 28.50Q-6 51-1.50 78Q3 105 18 133Q33 161 53 183Q65 196 79.50 207.50Q94 219 110 226.50Q126 234 142 234.50Q158 235 172 226Q181 220 184 209.50Q187 199 185 186.50Q183 174 176.50 161Q170 148 161 136Q154 126 147 120Q143 116 140 113Q137 110 132 108Q113 94 94.50 89.50Q76 85 64 83Q63 62 72 54.50Q81 47 95.50 47.50Q110 48 128.50 56Q147 64 164 74.50Q181 85 195 97Q209 109 216 118Q218 120 221.50 120.50Q225 121 228 119M68 123Q66 119 66 115.50Q66 112 64 108Q73 113 79.50 117.50Q86 122 91 127L98 134Q109 145 112 151Q119 162 123 173.50Q127 185 122 191Q119 196 111.50 191.50Q104 187 96 177Q88 167 80 152.50Q72 138 68 123Z"  horiz-adv-x="196" vert-adv-y="500"  />

      
      <glyph glyph-name="uni66" unicode="&#x66;" d="M243 113Q234 102 226.50 95Q219 88 210.50 84.50Q202 81 191 80Q180 79 164 79Q165 32 151.50-9.50Q138-51 117-79Q96-107 69.50-117.50Q43-128 18-113Q1-102-4-78.50Q-9-55-5-24Q-3 15 7.50 53.50Q18 92 30.50 124.50Q43 157 55 181Q67 205 73 216Q68 218 64 218.50Q60 219 55 221Q-32 249-87.50 256.50Q-143 264-170 263Q-187 263-185 268.50Q-183 274-177 279Q-160 291-132 303Q-104 315-69 312Q-44 310-22.50 302.50Q-1 295 19.50 285.50Q40 276 58.50 266Q77 256 96 248Q98 251 110 266.50Q122 282 140.50 300Q159 318 182 334.50Q205 351 230 356Q246 360 263.50 356.50Q281 353 293 333Q303 316 300 296Q297 276 284.50 257.50Q272 239 252 225Q232 211 208 207Q173 201 136 205L133 199Q131 196 129 191.50Q127 187 125 182L124 182L124 181Q113 158 98.50 116.50Q84 75 75 16Q74 11 73.50 6Q73 1 72-4Q70-21 71-32Q72-43 78-46Q87-51 99-36Q111-21 121 4Q123 9 124.50 14.50Q126 20 128 25Q136 55 136 83Q120 88 114.50 99.50Q109 111 110.50 123.50Q112 136 118 146Q124 156 130 158Q138 161 143.50 156Q149 151 153 143Q157 134 160 123Q161 119 161 115.50Q161 112 162 109Q166 108 170.50 108Q175 108 180 107Q193 107 200.50 108.50Q208 110 213 112.50Q218 115 222 119Q226 123 232 128Q235 130 239.50 132Q244 134 246 131Q249 127 247 121.50Q245 116 243 113M253 308Q251 312 244.50 315.50Q238 319 225.50 313.50Q213 308 195 290.50Q177 273 153 234L163 234Q192 235 210 245Q228 255 238 267Q248 279 251 291Q254 303 253 308Z"  horiz-adv-x="194" vert-adv-y="500"  />

      
      <glyph glyph-name="uni67" unicode="&#x67;" d="M225-52Q230-84 218-107.50Q206-131 196-142Q177-160 151.50-174Q126-188 92-190Q54-193 35-176.50Q16-160 10-136Q4-112 7.50-88Q11-64 18-53Q1-53-17-56Q-34-58-55-62Q-76-66-100-74Q-110-78-121-82Q-131-86-143.50-91Q-156-96-170-103Q-179-108-197-116Q-215-124-237-132.50Q-259-141-283.50-147Q-308-153-330-153Q-380-154-400-129.50Q-420-105-413-69Q-413-67-410-62.50Q-407-58-399-62Q-393-65-382.50-69Q-372-73-354.50-74.50Q-337-76-312.50-74.50Q-288-73-255-66Q-216-58-187.50-50Q-159-42-132-35.50Q-105-29-76-24Q-47-19-7-16Q10-15 23-17Q34-19 42.50-23Q51-27 50-37Q48-47 43-62Q38-77 39.50-91Q41-105 54.50-114.50Q68-124 103-124Q120-123 137-116Q151-110 167.50-98.50Q184-87 197-64Q199-61 199-58Q199-52 193-51Q189-50 173.50-49.50Q158-49 140-53Q122-57 107-65.50Q92-74 89-91Q88-94 86-95Q84-96 83-95Q79-94 74-92Q69-90 64.50-85.50Q60-81 57-74.50Q54-68 55-59Q56-45 68.50-34Q81-23 101-18Q96-15 96-11Q96-8 99-5Q100-3 102-2Q119 9 128.50 30.50Q138 52 142 76Q135 62 124 45.50Q113 29 98 15.50Q83 2 65.50-5.50Q48-13 27-9Q-3-3-8.50 21Q-14 45-6.50 74Q1 103 16 132Q31 161 43 176Q57 194 77.50 211.50Q98 229 122 228Q124 228 132.50 226.50Q141 225 149 218Q157 211 159.50 200Q162 189 160 176Q159 175 157 168Q153 159 144 151Q135 143 123 142Q114 142 113 145Q110 150 112 154Q113 156 115 157Q117 158 119.50 163Q122 168 123.50 173Q125 178 123.50 183.50Q122 189 117 192Q112 195 106.50 194Q101 193 96.50 191Q92 189 88.50 186.50Q85 184 84 183Q74 175 63 156Q52 137 47 117Q41 88 46.50 74.50Q52 61 68 60Q75 60 86 65Q97 70 108 78Q119 86 129.50 94.50Q140 103 146 110Q146 117 147 121L147 131Q149 145 165 153Q172 156 181 158Q193 160 202 154Q211 148 211 139Q212 128 211.50 118Q211 108 209 97Q207 84 199.50 59Q192 34 174 11Q168 3 161.50-2.50Q155-8 148-12L168-12Q171-12 173.50-12.50Q176-13 178-13Q191-15 206.50-23Q222-31 225-52Z"  horiz-adv-x="226" vert-adv-y="500"  />

      
      <glyph glyph-name="uni68" unicode="&#x68;" d="M56-12Q53-12 45.50-10.50Q38-9 30-5Q22-1 13.50 6.50Q5 14 1 26Q-3 36-3 49Q-3 62-0.50 75.50Q2 89 5.50 101.50Q9 114 12 123Q13 127 20 147.50Q27 168 37.50 196.50Q48 225 61.50 257.50Q75 290 90 318Q105 346 120.50 365.50Q136 385 150 389Q151 389 153 390Q155 390 157.50 390.50Q160 391 164 391Q171 391 180 390Q189 389 197.50 384.50Q206 380 213 371.50Q220 363 222 348L222 346Q222 344 221 343Q219 341 217.50 341Q216 341 214 340Q203 337 187 318.50Q171 300 152.50 270Q134 240 114.50 201Q95 162 77 118Q81 124 94.50 141Q108 158 126 176Q144 194 165.50 209Q187 224 207 226Q220 228 231 225Q240 223 248 217Q256 211 258 197Q259 184 247.50 161Q236 138 227 110Q217 80 217 51.50Q217 23 230 6Q232 3 233.50-1Q235-5 230-7Q224-9 215.50-11.50Q207-14 196.50-14.50Q186-15 174-13Q162-11 150-4Q145-1 144 3Q143 7 142 9Q141 18 141.50 33Q142 48 146 69Q150 90 158.50 116.50Q167 143 184 174Q186 177 186 180Q186 185 176 182Q172 180 158 169Q144 158 126.50 136.50Q109 115 93 83Q77 51 69 8Q66-15 56-12Z"  horiz-adv-x="243" vert-adv-y="500"  />

      
      <glyph glyph-name="uni69" unicode="&#x69;" d="M201 314Q207 303 196.50 293.50Q186 284 169.50 275Q153 266 136.50 258Q120 250 116 243Q114 241 112 241Q110 241 104.50 241.50Q99 242 91 246Q83 250 79 257Q75 263 74 271.50Q73 280 81 294Q90 310 107.50 319.50Q125 329 143.50 331.50Q162 334 178 329.50Q194 325 201 314M109 222Q114 219 120 210Q126 201 119 189Q114 181 108 169Q102 157 96 143Q92 135 89 126.50Q86 118 83 110Q73 80 73 51.50Q73 23 86 6Q88 3 89.50-1Q91-5 86-7Q80-9 71.50-11.50Q63-14 52.50-14.50Q42-15 30-13Q18-11 6-4Q1-1 0 3Q-1 7-2 9Q-4 23-1.50 52Q1 81 17 124Q34 171 49.50 198.50Q65 226 67 228Q72 236 82 234Q92 232 96 230Q98 229 101 227.50Q104 226 109 222Z"  horiz-adv-x="104" vert-adv-y="500"  />

      
      <glyph glyph-name="uni6a" unicode="&#x6a;" d="M-243-74Q-253-78-264-82Q-274-86-287-91Q-300-96-314-103Q-323-108-340.50-116Q-358-124-380-132.50Q-402-141-426.50-147Q-451-153-474-153Q-524-154-543.50-129.50Q-563-105-557-69Q-556-67-553.50-62.50Q-551-58-543-62Q-537-65-526.50-69Q-516-73-498.50-74.50Q-481-76-456.50-74.50Q-432-73-398-66Q-359-58-330.50-50Q-302-42-275-35.50Q-248-29-219-24Q-190-19-150-16Q-134-15-121-17Q-110-19-101-23Q-92-27-94-37Q-96-47-101-62Q-106-77-104.50-91Q-103-105-89.50-114.50Q-76-124-40-124Q-23-123-6-116Q8-110 24-98.50Q40-87 54-64Q55-61 55-58Q55-52 50-51Q46-50 30.50-49.50Q15-49-3-53Q-21-57-36.50-65.50Q-52-74-55-91Q-57-97-61-95Q-69-93-79.50-85.50Q-90-78-89-59Q-88-45-77-35Q-66-25-48-19L-49-19Q-58-17-58-11Q-58-8-55-5Q-54-3-52-2Q-46 1-41 6Q-39 9-36 12.50Q-33 16-31 19Q-24 28-18 41Q-12 54-7 66Q-1 78 3 90.50Q7 103 11 115Q18 135 22.50 152.50Q27 170 30 181Q32 189 33.50 196.50Q35 204 37 209Q40 223 50.50 225.50Q61 228 66 228Q77 227 82 224Q85 223 94 217.50Q103 212 102 204Q101 202 94.50 170.50Q88 139 69 93Q67 88 66 84.50Q65 81 63 77Q52 53 40.50 37Q29 21 20 10.50Q11 0 4-5.50Q-3-11-5-12L-6-12L25-12Q27-12 29.50-12.50Q32-13 34-13Q47-15 62.50-23Q78-31 82-52Q87-84 75-107.50Q63-131 52-142Q34-160 8.50-174Q-17-188-51-190Q-90-193-109-176.50Q-128-160-134-136Q-140-112-136.50-88Q-133-64-126-53Q-143-53-161-56Q-177-58-198-62Q-219-66-243-74M176 314Q182 303 171.50 293.50Q161 284 144.50 275Q128 266 111.50 258Q95 250 91 243Q89 241 87 241Q85 241 79.50 241.50Q74 242 66 246Q58 250 54 257Q50 263 49.50 271.50Q49 280 57 294Q66 310 83.50 319.50Q101 329 119 331.50Q137 334 153 329.50Q169 325 176 314Z"  horiz-adv-x="91" vert-adv-y="500"  />

      
      <glyph glyph-name="uni6b" unicode="&#x6b;" d="M157 137Q164 153 175 174Q176 177 176 180Q176 185 166 182Q166 182 160 178Q159 178 159 177.50Q159 177 158 177Q155 175 152 172.50Q149 170 145 166Q141 163 138.50 160Q136 157 133 154Q125 145 122.50 137Q120 129 119 127L119 125Q116 110 120 99Q124 88 132.50 80.50Q141 73 151 68Q161 63 169 62Q185 59 202 62Q209 62 215.50 58Q222 54 215 40Q206 23 189 8.50Q172-6 149-8L147-8L146-8Q139-9 133.50-8Q128-7 123-5L114-2Q90 9 86 36.50Q82 64 90 96Q80 78 72.50 56Q65 34 60 8Q58-3 55.50-8.50Q53-14 47-12Q44-12 38-10.50Q32-9 25-5Q18-1 11 6.50Q4 14-1 26Q-4 36-4 49Q-4 62-2 75.50Q0 89 4 101.50Q8 114 11 123Q12 127 19 147.50Q26 168 36.50 196.50Q47 225 60.50 257.50Q74 290 89 318Q104 346 119 365.50Q134 385 148 389Q149 389 152 390Q154 390 156.50 390.50Q159 391 163 391Q176 391 192 384Q208 377 213 348L213 346Q213 345 211 343Q209 340 205 340Q190 338 173 319.50Q156 301 138.50 271Q121 241 103 201.50Q85 162 67 118Q72 124 85.50 141Q99 158 117 176Q135 194 156 209Q177 224 198 226Q205 227 212 226Q218 225 225 223.50Q232 222 238 217Q246 211 247.50 200.50Q249 190 246.50 179.50Q244 169 239 159.50Q234 150 230 145Q223 137 213 133Q203 129 192.50 128Q182 127 174 128Q166 129 163 129Q158 129 157 132Q156 135 157 137Z"  horiz-adv-x="239" vert-adv-y="500"  />

      
      <glyph glyph-name="uni6c" unicode="&#x6c;" d="M77 118Q76 116 76.50 113Q77 110 76 108Q73 99 70 85Q67 71 66 56Q65 41 66.50 26.50Q68 12 74 2Q76-2 73-8Q71-11 68-11.50Q65-12 63-12Q59-11 51.50-9.50Q44-8 36-4Q28 0 20 7Q12 14 8 26Q5 36 4 49Q3 62 4 75.50Q5 89 7.50 101.50Q10 114 12 123Q13 127 18 146Q23 165 31 191.50Q39 218 49.50 249Q60 280 72.50 308Q85 336 98 357Q111 378 125 386Q125 387 129 389Q133 390 138 391Q143 392 151 392Q153 392 156.50 391.50Q160 391 165 390Q169 388 181 381.50Q193 375 195 359Q195 355 191 351Q190 350 188.50 348.50Q187 347 185 345Q180 342 167 322Q154 302 138 271.50Q122 241 105.50 202.50Q89 164 79 123Q78 121 78 120.50Q78 120 77 118Z"  horiz-adv-x="90" vert-adv-y="500"  />

      
      <glyph glyph-name="uni6d" unicode="&#x6d;" d="M284 220Q295 209 291.50 195.50Q288 182 284 173Q276 159 269 143Q266 135 262.50 126.50Q259 118 256 110Q247 80 247 51.50Q247 23 260 6Q262 3 263-1Q264-5 260-7Q254-9 245-11.50Q236-14 225.50-14.50Q215-15 203-13Q191-11 179-4Q172 2 172 9Q170 23 172 52Q174 81 191 124Q191 125 192 126L191 126Q180 111 174 96.50Q168 82 166 69.50Q164 57 163.50 48.50Q163 40 162 37Q160 31 144.50 33Q129 35 112 45Q103 50 102 61.50Q101 73 104 85Q108 99 115 116Q103 101 96.50 86Q90 71 87 57.50Q84 44 83 32.50Q82 21 82 15Q82 10 80 6Q79 1 75-1Q73-2 72-1Q47 2 32.50 12.50Q18 23 11 36.50Q4 50 3 64Q2 78 3 89Q4 100 6 107.50Q8 115 10 120Q10 121 10.50 122Q11 123 11 124Q28 171 43.50 198.50Q59 226 61 228Q66 236 76 234Q86 232 90 230Q92 229 95 227.50Q98 226 103 222Q108 219 114 210Q120 201 113 189Q108 181 102 169Q96 157 90 143Q88 138 85.50 132.50Q83 127 81 121Q89 134 98 146Q106 157 115 169Q124 181 134 192Q139 198 147 202Q154 206 163.50 208.50Q173 211 187 209L188 209L189 209Q197 208 199.50 203.50Q202 199 197 194Q189 185 178.50 170Q168 155 163 144Q173 157 184 168Q194 178 205.50 189Q217 200 230 210Q233 212 236.50 214.50Q240 217 243 219Q249 223 262 226.50Q275 230 284 220Z"  horiz-adv-x="278" vert-adv-y="500"  />

      
      <glyph glyph-name="uni6e" unicode="&#x6e;" d="M68-1Q43 2 28.50 8Q14 14 6 21.50Q-2 29-4 38.50Q-6 48-5 59Q-1 84 4.50 105.50Q10 127 18 146.50Q26 166 35.50 185.50Q45 205 57 228Q62 236 72.50 234Q83 232 86 230Q88 229 91.50 227.50Q95 226 100 222Q104 219 110 210Q116 201 109 189Q104 181 98 169Q92 157 86 143Q84 138 82 133.50Q80 129 78 124Q81 128 90.50 139.50Q100 151 115 165Q130 179 149 193.50Q168 208 190 218Q192 220 195 220.50Q198 221 200 223Q208 226 217.50 227Q227 228 234 220Q245 209 241.50 195.50Q238 182 233 173Q230 166 226.50 158.50Q223 151 219 143Q216 135 212.50 126.50Q209 118 206 110Q197 80 196.50 51.50Q196 23 210 6Q212 3 213-1Q214-5 209-7Q203-9 194.50-11.50Q186-14 175.50-14.50Q165-15 153-13Q141-11 129-4Q124-1 123 3Q122 7 121 9Q120 21 121.50 46.50Q123 72 135 109Q137 116 140 124Q143 132 148 141L148 143Q146 144 145 143Q134 135 122.50 124.50Q111 114 102 100Q88 80 82 53Q80 41 79 31Q78 21 78 15Q78 8 77 6Q74 1 71-1Q69-2 68-1Z"  horiz-adv-x="226" vert-adv-y="500"  />

      
      <glyph glyph-name="uni6f" unicode="&#x6f;" d="M152 243Q157 241 160.50 238Q164 235 169 230Q175 222 178 210.50Q181 199 181.50 187Q182 175 180.50 164Q179 153 177 146Q184 145 192 145Q199 145 208.50 146.50Q218 148 229 153Q236 155 239 154Q241 152 241 144.50Q241 137 236 132Q225 123 211 118Q196 112 178 112Q171 112 168 113L166 109Q165 107 164 104.50Q163 102 162 99Q157 87 146 68.50Q135 50 118.50 33Q102 16 80 5Q58-6 30-3Q4 1-5.50 21.50Q-15 42-12.50 69.50Q-10 97 1.50 127Q13 157 30 180Q36 188 43 196Q50 204 58 212Q64 217 73.50 222.50Q83 228 90 221Q94 219 94.50 216.50Q95 214 95 212Q107 243 132 245L139 245Q147 245 152 243M117 115Q120 118 120 119Q114 122 109 127Q104 131 99.50 137.50Q95 144 92 154Q91 159 90 165Q89 171 89 178Q88 181 90 187Q90 192 91 196Q92 200 93 205Q91 200 84 192Q81 186 77 181Q74 176 70 170Q66 164 63 158Q59 150 55 139Q51 128 47 114Q42 98 41 81.50Q40 65 54 62Q63 60 74 68Q85 76 93 85Q103 94 117 115M139 161Q146 179 144 196Q142 213 134 212Q126 211 123.50 200Q121 189 123 179Q124 171 132 165Q136 162 139 161Z"  horiz-adv-x="184" vert-adv-y="500"  />

      
      <glyph glyph-name="uni70" unicode="&#x70;" d="M124 95Q129 91 124 82Q119 73 112 63.50Q105 54 101 46Q97 38 104 35Q109 33 117.50 43Q126 53 135.50 69Q145 85 154.50 105Q164 125 170.50 143Q177 161 178.50 175Q180 189 175 193Q166 199 148 187Q130 175 110.50 153.50Q91 132 74.50 104Q58 76 53 50Q36-12 34.50-54Q33-96 35-104Q36-108 36-114Q37-116 36-118Q35-120 34-122Q23-133 9.50-131Q-4-129-7-127Q-15-123-19-119Q-25-114-28-110Q-31-106-33-103Q-33-102-34-102Q-36-98-36-98Q-42-82-38.50-53Q-35-24-26.50 9Q-18 42-6.50 75.50Q5 109 16 135Q33 177 46.50 201.50Q60 226 62 228Q67 236 77 234Q87 232 91 230Q93 229 96 227.50Q99 226 104 222Q109 219 115 210Q121 201 114 189Q112 187 114 190.50Q116 194 114 189Q121 196 131.50 203.50Q142 211 154 216Q166 221 180 221Q194 221 208 214Q220 208 224 192.50Q228 177 227 157.50Q226 138 220.50 117Q215 96 209 80Q199 57 184 37.50Q169 18 146 7Q137 2 126 0Q117-2 106-0.50Q95 1 84 9Q73 16 69 27Q65 38 65.50 49.50Q66 61 71 71.50Q76 82 84 90Q90 95 101.50 99Q113 103 124 95Z"  horiz-adv-x="222" vert-adv-y="500"  />

      
      <glyph glyph-name="uni71" unicode="&#x71;" d="M181 34Q176 19 173.50 5Q171-9 169-22Q164-56 164-78Q164-100 165-106Q166-110 166.50-112Q167-114 167-116Q168-121 165-124Q154-135 140.50-133Q127-131 124-129Q116-125 112-121Q106-116 103-112Q100-108 98-105L97-105Q95-101 95-100Q89-82 93.50-49Q98-16 108 22Q93 7 74-2Q55-11 33-6Q13-2 4.50 10.50Q-4 23-5 40Q-6 57-0.50 77Q5 97 13.50 116Q22 135 32 151.50Q42 168 50 178Q64 197 85.50 215Q107 233 131 230Q135 229 141.50 227.50Q148 226 154 221Q165 213 167 200.50Q169 188 165 174L165 173L166 173Q170 176 175.50 177Q181 178 189 174Q202 166 209 155.50Q216 145 212 134Q207 124 203 113Q199 102 196 91Q193 83 190 70Q185 55 181 34M140 120Q143 129 146 137.50Q149 146 153 154Q148 149 142.50 145.50Q137 142 129 142Q120 142 119 145Q117 149 119 155L122 158Q124 160 126 164.50Q128 169 129 174Q130 179 129 184Q128 189 123 192Q115 196 108 193.50Q101 191 96 189Q91 187 85 180.50Q79 174 73 164.50Q67 155 62 143.50Q57 132 54 120Q47 91 52.50 77.50Q58 64 74 62Q84 62 99.50 71Q115 80 129 91Q131 96 132.50 100Q134 104 136 109Q138 117 140 120Z"  horiz-adv-x="212" vert-adv-y="500"  />

      
      <glyph glyph-name="uni72" unicode="&#x72;" d="M70-1Q45 2 30.50 8Q16 14 8 21.50Q0 29-2 38.50Q-4 48-3 59Q1 84 6.50 105.50Q12 127 20 146.50Q28 166 37.50 185.50Q47 205 59 228Q64 236 74.50 234Q85 232 88 230Q90 229 93.50 227.50Q97 226 102 222Q106 219 112 210Q118 201 111 189Q106 181 100 169Q94 157 88 143Q86 138 84 133.50Q82 129 80 124Q83 128 89.50 139.50Q96 151 107 165Q118 179 134 193.50Q150 208 172 218Q174 220 177 220.50Q180 221 182 223Q190 226 199.50 227Q209 228 216 220Q227 209 223.50 195.50Q220 182 215 173Q211 164 206 155Q201 146 198 138Q195 130 195 124Q195 118 201 115Q203 112 204 108Q205 104 200 102Q194 100 185 97.50Q176 95 165.50 94.50Q155 94 145.50 96Q136 98 130 105Q126 110 123 115.50Q120 121 130 141L130 143Q128 144 127 143Q118 134 108 118.50Q98 103 90 85Q82 67 78.50 48.50Q75 30 80 15Q81 10 79 6Q76 1 73-1Q71-2 70-1Z"  horiz-adv-x="211" vert-adv-y="500"  />

      
      <glyph glyph-name="uni73" unicode="&#x73;" d="M114 153Q118 156 123 163.50Q128 171 132 180Q136 189 137 197Q138 205 135 210Q130 216 120 207Q110 198 100 182L100 181Q100 181 99 180Q94 170 90.50 159Q87 148 86 138Q85 128 88.50 120Q92 112 100 109Q109 106 123.50 102Q138 98 151.50 89Q165 80 173 65.50Q181 51 176 29Q171 6 157.50-4Q144-14 130-17Q113-21 93-18Q51-11 33.50 5.50Q16 22 11.50 41Q7 60 11 76Q15 92 18 98Q20 103 23 104.50Q26 106 28 107Q33 107 37 100Q40 86 54.50 74Q69 62 86.50 54Q104 46 119.50 44Q135 42 140 50Q145 58 137.50 65Q130 72 119 78Q106 85 88 92Q59 100 49 116.50Q39 133 40 149Q41 162 47 173Q48 176 52.50 184.50Q57 193 65 203.50Q73 214 85.50 224.50Q98 235 116 244Q120 246 123 247Q126 248 129 249Q143 254 156.50 253Q170 252 183 244Q198 235 198.50 216.50Q199 198 190.50 178.50Q182 159 167 142Q152 125 137 120Q121 114 113.50 115.50Q106 117 104 121L103 122Q99 129 102.50 137Q106 145 114 153Z"  horiz-adv-x="204" vert-adv-y="500"  />

      
      <glyph glyph-name="uni74" unicode="&#x74;" d="M178 317Q167 302 154 281Q141 260 127.50 235Q114 210 101.50 181.50Q89 153 79 123Q78 121 78 120.50Q78 120 77 118Q74 110 66.50 83.50Q59 57 59 31Q59 20 62.50 12Q66 4 66-3Q66-9 61.50-10.50Q57-12 54-12Q49-11 39.50-9Q30-7 20.50-0.50Q11 6 4 17.50Q-3 29-3 49Q-3 69 2 89Q7 109 12 123Q13 127 21 148.50Q29 170 40 199Q51 228 65 261Q79 294 94 322Q65 322 36 315.50Q7 309-24 305Q-54 302-74 305.50Q-94 309-105.50 317Q-117 325-122 335.50Q-127 346-127 357Q-127 363-123.50 377Q-120 391-111 391Q-108 391-100.50 386Q-93 381-77.50 374.50Q-62 368-36 362.50Q-10 357 30 356Q51 355 57 355Q63 355 66.50 355.50Q70 356 78 356Q86 356 112 355Q125 374 135 383Q145 392 169 392Q167 392 173 392Q179 392 187.50 389Q196 386 203 379Q210 372 211 359Q211 355 205 349Q215 349 231.50 347Q248 345 263.50 339.50Q279 334 290.50 324.50Q302 315 302 300Q302 283 291 277.50Q280 272 273 270Q268 270 267 274Q266 284 256.50 292.50Q247 301 233.50 306.50Q220 312 205 315Q190 318 178 317Z"  horiz-adv-x="89" vert-adv-y="500"  />

      
      <glyph glyph-name="uni75" unicode="&#x75;" d="M245 208Q249 198 244 189Q239 181 232.50 169Q226 157 221 143Q217 135 213.50 126.50Q210 118 208 110Q198 80 198 51.50Q198 23 211 6Q213 3 214.50-1Q216-5 211-7Q205-9 196-11.50Q187-14 176.50-14.50Q166-15 154-13Q142-11 130-4Q123 2 123 9Q122 17 122 30.50Q122 44 125 64Q114 47 102.50 32Q91 17 79 8Q71 1 64 0Q59-3 54-3Q16-6 1.50 23Q-13 52 4 109Q5 115 8 120Q8 121 8.50 122Q9 123 9 124Q26 171 41.50 198.50Q57 226 59 228Q64 236 74 234Q84 232 87 230Q94 228 101 222Q105 219 111 210Q117 201 111 189Q106 181 100 169Q94 157 88 143Q86 138 84 133.50Q82 129 80 124Q80 123 79.50 123Q79 123 79 122Q78 117 75.50 107.50Q73 98 72.50 88.50Q72 79 74 71.50Q76 64 83 63Q85 63 86 64Q93 67 103.50 79Q114 91 125 107.50Q136 124 146.50 141.50Q157 159 165 173Q171 184 181 198.50Q191 213 203 224L204 224Q205 226 213 230Q215 231 219 230Q222 229 226 227.50Q230 226 235 221Q235 220 236 220Q236 220 238 219L244 210L244 209Q245 209 245 208Z"  horiz-adv-x="221" vert-adv-y="500"  />

      
      <glyph glyph-name="uni76" unicode="&#x76;" d="M191 221Q195 218 201 210Q207 202 207 186Q207 179 204 166Q201 153 193.50 136Q186 119 173 99Q160 79 140 59Q140 59 131.50 49Q123 39 110 27.50Q97 16 81 6.50Q65-3 49-3Q-3-3-3 57Q-3 63-2 73Q-1 83 1 93.50Q3 104 5.50 112.50Q8 121 11 124Q25 161 34.50 182.50Q44 204 51 215.50Q58 227 62 230.50Q66 234 69 234Q71 234 71.50 233.50Q72 233 73 233Q74 233 80.50 232.50Q87 232 94.50 229Q102 226 108.50 219Q115 212 115 199Q115 194 105 178Q95 162 81.50 142Q68 122 55 101Q42 80 36.50 66Q31 52 36.50 49Q42 46 66 61L69 64Q73 68 75 69Q89 83 99.50 101Q110 119 117 137Q124 155 127.50 170.50Q131 186 131 196Q131 205 128.50 212Q126 219 126 226Q126 231 131 232Q136 233 144 233Q154 233 166 230.50Q178 228 191 221Z"  horiz-adv-x="190" vert-adv-y="500"  />

      
      <glyph glyph-name="uni77" unicode="&#x77;" d="M158-3Q156-3 154-3.50Q152-4 150-4Q110-4 101 36Q85 13 72 5Q59-3 51-3Q27-3 15.50 11.50Q4 26 1 46.50Q-2 67 2 89.50Q6 112 12 127Q29 167 40.50 188.50Q52 210 59.50 220Q67 230 70.50 231.50Q74 233 76 233Q75 233 86 230.50Q97 228 107.50 223.50Q118 219 123.50 213Q129 207 118 200Q112 196 101 181Q90 166 77.50 146.50Q65 127 54.50 106.50Q44 86 40.50 72Q37 58 42.50 53.50Q48 49 69 61Q99 91 115 130Q132 174 146.50 200Q161 226 162 228Q164 233 174 233Q192 230 204 226Q215 222 220.50 215.50Q226 209 217 200Q205 188 193 169.50Q181 151 170.50 131.50Q160 112 153 94Q146 76 144.50 64.50Q143 53 148 51Q153 49 168 61Q170 63 172 64.50Q174 66 178 70Q191 85 201.50 102.50Q212 120 219 137Q226 154 229.50 169.50Q233 185 233 196Q233 205 230.50 212Q228 219 228 226Q228 231 233 232Q238 233 246 233Q252 233 262.50 232Q273 231 283.50 226.50Q294 222 301.50 212.50Q309 203 309 186Q309 169 295 135Q281 101 242 59Q237 53 232 47Q223 37 206 23Q208 26 204.50 22.50Q201 19 194 13Q187 7 177.50 2Q168-3 158-3Z"  horiz-adv-x="293" vert-adv-y="500"  />

      
      <glyph glyph-name="uni78" unicode="&#x78;" d="M180 117Q173 109 163.50 100Q154 91 141 81L133 73Q135 65 140 55Q145 45 153 40L154 40Q155 39 157 39Q168 35 168.50 30Q169 25 166 22Q163 18 160 14.50Q157 11 154 9Q153 8 152 7.50Q151 7 150 6Q100-19 74 34Q54 21 33.50 11Q13 1-1-1Q-6-2-11-1Q-16 0-21.50 1.50Q-27 3-32 8Q-37 12-37 16Q-39 25-20 34Q-8 40 13 49.50Q34 59 61 83Q61 85 60.50 86Q60 87 60 89Q59 94 59 101Q58 103 58 105Q56 155 59 187Q62 219 63 221Q65 229 75 231Q85 233 88 234Q90 234 94 234Q98 234 104 232Q109 230 118.50 224.50Q128 219 126 205Q123 185 123 154Q125 157 127.50 160.50Q130 164 133 168Q146 188 152 207Q158 226 154 242Q153 245 153.50 249.50Q154 254 159 254Q169 253 185 249.50Q201 246 217 233Q222 229 227.50 214.50Q233 200 219 172Q213 161 203.50 147Q194 133 180 117Z"  horiz-adv-x="208" vert-adv-y="500"  />

      
      <glyph glyph-name="uni79" unicode="&#x79;" d="M224 224Q228 223 236.50 217.50Q245 212 244 204Q244 183 234.50 152Q225 121 210 89.50Q195 58 176 30.50Q157 3 137-12L136-12L167-12Q169-12 171.50-12.50Q174-13 176-13Q190-15 205-23Q220-31 224-52Q229-84 217-107.50Q205-131 194-142Q176-160 150.50-174Q125-188 91-190Q53-193 34-176.50Q15-160 9-136Q3-112 6.50-88Q10-64 17-53Q3-51-28-54.50Q-59-58-101-74Q-111-78-122-82Q-132-86-145-91Q-158-96-172-103Q-181-108-198.50-116Q-216-124-238-132.50Q-260-141-284.50-147Q-309-153-332-153Q-381-154-401-129.50Q-421-105-415-69Q-414-67-411-62.50Q-408-58-401-62Q-395-65-384-69Q-373-73-356-74.50Q-339-76-314-74.50Q-289-73-256-66Q-217-58-188.50-50Q-160-42-133-35.50Q-106-29-77-24Q-48-19-8-16Q8-15 21-17Q32-19 41-23Q50-27 48-37Q47-47 42-62Q37-77 38.50-91Q40-105 53.50-114.50Q67-124 102-124Q119-123 136-116Q150-110 166-98.50Q182-87 196-64Q197-61 197-58Q197-52 192-51Q188-50 172.50-49.50Q157-49 139-53Q121-57 106-65.50Q91-74 88-91Q87-94 85-95Q83-96 82-95Q74-93 63-85.50Q52-78 53-59Q56-31 95-19L94-19Q84-17 84-11Q84-8 87-5Q89-3 91-2Q95 0 101 6Q104 9 106.50 12.50Q109 16 111 19Q118 28 124.50 41Q131 54 136 66Q138 71 140.50 77Q143 83 145 89Q131 64 115.50 42.50Q100 21 83 8Q75 1 69 0Q63-3 59-3Q21-6 6.50 23Q-8 52 9 109Q10 112 10.50 115Q11 118 12 120Q13 121 13 124Q30 171 46 198.50Q62 226 63 228Q68 236 78.50 234Q89 232 92 230Q94 229 97.50 227.50Q101 226 106 222Q110 219 116 210Q122 201 115 189Q110 181 104 169Q98 157 92 143Q90 138 88 133.50Q86 129 84 124L84 122Q82 117 80 107.50Q78 98 77 88.50Q76 79 78 71.50Q80 64 87 63Q89 63 91 64Q98 67 108 78.50Q118 90 129.50 106Q141 122 152 140.50Q163 159 171 176Q172 177 172 178Q172 179 173 181Q177 196 179 209Q183 223 193.50 225.50Q204 228 209 228Q215 227 218.50 226Q222 225 224 224Z"  horiz-adv-x="240" vert-adv-y="500"  />

      
      <glyph glyph-name="uni7a" unicode="&#x7a;" d="M161 220Q165 217 167 211Q169 206 170 198Q171 190 169 179Q168 173 167 168Q166 163 165 159Q164 155 162 153L161 153Q159 151 157 150Q137 135 119.50 119.50Q102 104 88.50 89Q75 74 65 61Q55 48 49 40L59 40Q69 38 83.50 34Q98 30 112 17Q117 13 128.50-3.50Q140-20 142-50Q143-67 140.50-80Q138-93 134-103Q130-113 126.50-118.50Q123-124 122-125Q119-130 115.50-134.50Q112-139 110-142Q91-160 65.50-174Q40-188 6-190Q-32-193-51-176.50Q-70-160-76-136Q-82-112-78.50-88Q-75-64-68-53Q-85-53-103-56Q-120-58-141-62Q-162-66-186-74Q-196-78-207-82Q-217-86-230-91Q-243-96-257-103Q-266-108-283.50-116Q-301-124-323-132.50Q-345-141-369.50-147Q-394-153-416-153Q-466-154-486-129.50Q-506-105-500-69Q-499-67-496-62.50Q-493-58-486-62Q-480-65-469-69Q-458-73-441-74.50Q-424-76-399-74.50Q-374-73-341-66Q-302-58-273.50-50Q-245-42-218-35.50Q-191-29-162-24Q-133-19-93-16Q-77-15-64-17Q-53-19-44-23Q-35-27-37-37Q-38-47-43-62Q-48-77-46.50-91Q-45-105-31.50-114.50Q-18-124 17-124Q30-123 43-119Q54-115 67.50-108Q81-101 94-87Q100-80 106.50-68.50Q113-57 112-42Q112-30 106-22Q100-14 92.50-9.50Q85-5 76.50-3Q68-1 62-1Q43-2 28.50-9.50Q14-17 10-34Q9-37 7-37.50Q5-38 4-38Q-9-35-18.50-26Q-28-17-27-3Q-26 17-11.50 26.50Q3 36 23 38Q19 49 21.50 60.50Q24 72 27 80Q30 87 33 94Q36 101 41 109Q43 113 45.50 116.50Q48 120 50 123Q73 158 89 179Q88 178 86 178Q75 176 72 177L71 177L70 177Q56 157 36 138.50Q16 120-10 115Q-19 114-25 120.50Q-31 127-33 133Q-35 137-35 139Q-36 142-33 145Q-32 146-31 146Q-29 145-23 145Q-21 144-19.50 144.50Q-18 145-16 145L-13 145Q-5 146 4 151Q12 156 22 164Q32 172 44 189Q42 190 41.50 191Q41 192 40 193Q34 200 31 213Q26 228 26.50 246Q27 264 34 277.50Q41 291 54 298Q67 305 87 298Q100 293 105 284.50Q110 276 110 265.50Q110 255 106 244Q102 233 97 224L95 220Q94 218 93 216.50Q92 215 91 213Q95 211 103 214Q108 216 114.50 218.50Q121 221 130 224Q137 226 145.50 226.50Q154 227 161 220M68 229Q71 232 74.50 237.50Q78 243 79.50 248.50Q81 254 80 258Q79 262 74 263Q69 264 66.50 260Q64 256 62 251Q60 243 64 235Q66 231 68 229Z"  horiz-adv-x="146" vert-adv-y="500"  />

      
      <glyph glyph-name="uni32" unicode="&#x32;" d="M276 93Q267 81 249.50 61.50Q232 42 206 19.50Q180-3 146-26Q112-49 70-68Q127-69 182-62L183-62L187-62Q189-61 191.50-61Q194-61 196-60Q226-55 249-47.50Q272-40 288-32.50Q304-25 313.50-19Q323-13 328-11Q333-9 335.50-12Q338-15 339-19Q341-23 341-25L341-27Q341-64 317.50-85.50Q294-107 267-115Q238-125 201-127Q164-129 129.50-127.50Q95-126 69-122.50Q43-119 37-118L36-118L37-118Q24-115 17-108Q10-101 7.50-92.50Q5-84 5-76.50Q5-69 6-65L6-64Q7-63 8-61Q9-59 12-57Q32-47 54.50-32Q77-17 102 6Q105 8 108 11Q111 14 114 17Q160 62 197.50 114.50Q235 167 266 221Q287 263 291 289Q295 315 291 329Q287 346 274 353Q260 359 241 352Q222 345 206 334Q195 326 183 314.50Q171 303 166 288Q165 285 162 283Q156 279 150 286Q143 294 154 319Q165 344 210 372Q235 388 259.50 391.50Q284 395 303 384Q315 377 329.50 354.50Q344 332 347.50 296Q351 260 337.50 210.50Q324 161 281 99Q279 97 278.50 96Q278 95 276 93Z"  horiz-adv-x="362" vert-adv-y="500"  />

      
      <glyph glyph-name="uni3d" unicode="&#x3d;" d="M165 191Q167 170 166 159.50Q165 149 161.50 144.50Q158 140 152.50 140Q147 140 140 140L19 140Q13 142 12.50 151.50Q12 161 12 164Q12 166 15 177Q17 181 21.50 186.50Q26 192 36 193Q55 194 68 194Q81 194 93 194Q105 194 118.50 194.50Q132 195 153 195Q155 195 156 196Q157 197 159 197Q162 196 164 194Q165 193 165 191M165 110Q167 89 166 78.50Q165 68 161.50 63.50Q158 59 152.50 59Q147 59 140 59L19 59Q13 61 12.50 70.50Q12 80 12 83Q12 85 15 96Q17 100 21.50 105.50Q26 111 36 112Q55 113 68 113Q81 113 93 113Q105 113 118.50 113.50Q132 114 153 114Q155 114 156 115Q157 116 159 116Q162 115 164 113Q165 112 165 110Z"  horiz-adv-x="182" vert-adv-y="500"  />

      
      <glyph glyph-name="uni2d" unicode="&#x2d;" d="M164 149Q166 128 165 117.50Q164 107 160.50 102.50Q157 98 151.50 98Q146 98 139 98L18 98Q12 100 11.50 109.50Q11 119 11 122Q11 124 14 135Q16 139 20.50 144.50Q25 150 35 151Q54 152 67 152Q80 152 92 152Q104 152 117.50 152.50Q131 153 152 153Q154 153 155 154Q156 155 158 155Q161 154 163 152Q164 151 164 149Z"  horiz-adv-x="180" vert-adv-y="500"  />

      
      <glyph glyph-name="uni2c" unicode="&#x2c;" d="M25-67Q26-64 32-50.50Q38-37 45-20Q52-3 57.50 13Q63 29 63 37Q63 41 66 41Q68 43 73 45Q78 47 86 47Q95 48 102 44Q108 41 113 33.50Q118 26 119 11Q119-8 102-27Q85-46 66-59Q47-72 33-75.50Q19-79 25-67Z"  horiz-adv-x="129" vert-adv-y="500"  />

      
      <glyph glyph-name="uni2e" unicode="&#x2e;" d="M25-18Q28-12 35 4.50Q42 21 43 37Q43 41 46 41Q48 43 53 45Q58 47 66 47Q75 48 82 44Q88 41 93 33.50Q98 26 99 11Q99-8 85.50-19.50Q72-31 56-34.50Q40-38 29.50-34Q19-30 25-18Z"  horiz-adv-x="109" vert-adv-y="500"  />

      
      <glyph glyph-name="uni2f" unicode="&#x2f;" d="M87 49Q86 47 86.50 44Q87 41 86 39Q83 30 80 16Q77 2 76-13Q75-28 76.50-42.50Q78-57 84-67Q86-71 83-77Q81-80 78-80.50Q75-81 73-81Q69-80 61.50-78.50Q54-77 46-73Q38-69 30-62Q22-55 18-43Q15-33 14-20Q13-7 14 6.50Q15 20 17.50 32.50Q20 45 22 54Q22 58 27.50 79.50Q33 101 43 134Q53 167 68 207.50Q83 248 103 289.50Q123 331 146.50 370Q170 409 198 438Q198 439 202 441Q206 442 211 443Q216 444 224 444Q226 444 229.50 443.50Q233 443 238 442Q242 440 254 433.50Q266 427 268 411Q268 407 264 403Q263 402 261.50 400.50Q260 399 258 397Q253 394 231 360Q209 326 181 276Q153 226 127 167Q101 108 89 54Q89 53 87 49Z"  horiz-adv-x="276" vert-adv-y="500"  />

      
      <glyph glyph-name="uni2b" unicode="&#x2b;" d="M63 197Q84 199 94.50 198Q105 197 109.50 193.50Q114 190 114 184.50Q114 179 114 172L114 152Q122 152 130.50 152Q139 152 151 153Q153 153 154 154Q155 155 157 155Q160 154 162 152Q163 151 163 149Q165 128 164 117.50Q163 107 159.50 102.50Q156 98 150.50 98Q145 98 138 98L114 98L114 51Q112 45 102.50 44.50Q93 44 90 44Q87 44 77 47Q73 49 67.50 53.50Q62 58 61 68Q60 77 60 84Q60 91 60 98L17 98Q11 100 10.50 109.50Q10 119 10 122Q10 124 13 135Q15 139 19.50 144.50Q24 150 34 151Q42 151 48 151.50Q54 152 59 152L59 185Q59 187 58 188Q57 189 57 191Q57 193 60 196Q61 197 63 197Z"  horiz-adv-x="178" vert-adv-y="500"  />

      
      <glyph glyph-name="uni3a" unicode="&#x3a;" d="M26 53Q29 59 36 75.50Q43 92 44 108Q44 112 47 112Q49 114 54 116Q59 118 67 118Q76 119 83 115Q89 112 94 104.50Q99 97 100 82Q100 63 86.50 51.50Q73 40 57 36.50Q41 33 30.50 37Q20 41 26 53M46 154Q49 160 56 176.50Q63 193 64 209Q64 213 67 213Q69 215 74 217Q79 219 87 219Q96 220 103 216Q109 213 114 205.50Q119 198 120 183Q120 164 106.50 152.50Q93 141 77 137.50Q61 134 50.50 138Q40 142 46 154Z"  horiz-adv-x="130" vert-adv-y="500"  />

      
      <glyph glyph-name="uni60" unicode="&#x60;" d="M148 246Q159 239 145 235.50Q131 232 108 233.50Q85 235 61 243.50Q37 252 28 269Q21 283 22 291.50Q23 300 27 306Q31 312 40 317Q47 321 52.50 321.50Q58 322 60 321Q63 324 65 319Q74 292 87 278Q100 264 112.50 257.50Q125 251 135 249.50Q145 248 148 246Z"  horiz-adv-x="186" vert-adv-y="500"  />

      
      <glyph glyph-name="unib4" unicode="&#xb4;" d="M43 289Q46 289 54.50 283.50Q63 278 77 274.50Q91 271 110 272.50Q129 274 153 288Q158 290 158 286Q166 282 170 269Q174 261 173 253Q172 246 166.50 238.50Q161 231 147 226Q129 219 106 229Q83 239 64.50 253Q46 267 38 279Q30 291 43 289Z"  horiz-adv-x="194" vert-adv-y="500"  />

      
      <glyph glyph-name="uni02C6" unicode="&#x02C6;" d="M35 273Q38 274 46.50 273Q55 272 67 273.50Q79 275 93 282Q107 289 121 305Q123 309 127 312Q129 314 131 316.50Q133 319 135 322Q137 324 140 322Q143 321 151 319Q159 317 162 316Q163 317 164.50 316Q166 315 166 313Q166 309 166.50 306Q167 303 168 299L169 292Q173 271 182 258Q191 245 200.50 237.50Q210 230 218 226.50Q226 223 228 221Q235 213 226 211.50Q217 210 200.50 214Q184 218 164.50 227.50Q145 237 132 250Q114 245 93 247Q72 249 55.50 253.50Q39 258 32 264Q25 270 35 273Z"  horiz-adv-x="256" vert-adv-y="500"  />

      
      <glyph glyph-name="unia8" unicode="&#xa8;" d="M103 311Q107 304 100 297.50Q93 291 82 285Q71 279 60 273.50Q49 268 46 263Q45 263 45 262.50Q45 262 44 262L43 262Q41 262 37.50 262.50Q34 263 29 265Q24 268 21 272Q19 276 18 282.50Q17 289 22 298Q28 309 40 315.50Q52 322 64.50 323.50Q77 325 87.50 321.50Q98 318 103 311M170 284Q174 277 167 270.50Q160 264 149 258Q138 252 127 246.50Q116 241 113 236Q112 236 112 235.50Q112 235 111 235L110 235Q108 235 104.50 235.50Q101 236 96 238Q91 241 88 245Q86 249 85 255.50Q84 262 89 271Q95 282 107 288.50Q119 295 131.50 296.50Q144 298 154.50 294.50Q165 291 170 284Z"  horiz-adv-x="191" vert-adv-y="500"  />

      
      <glyph glyph-name="uni02C7" unicode="&#x02C7;" d="M221 249Q218 248 209.50 249Q201 250 189 248.50Q177 247 163 240Q149 233 135 217Q133 212 129 210Q127 208 125 205.50Q123 203 121 200Q118 197 116 200Q113 201 105 203Q97 205 94 206Q93 205 91.50 206Q90 207 90 209Q90 213 89.50 216Q89 219 88 223L87 230Q82 251 73.50 264Q65 277 55.50 284.50Q46 292 38 295.50Q30 299 28 301Q21 309 30 310.50Q39 312 55.50 308Q72 304 91.50 294.50Q111 285 124 272Q142 276 163 274.50Q184 273 200.50 268.50Q217 264 224 258Q231 252 221 249Z"  horiz-adv-x="256" vert-adv-y="500"  />

      
      <glyph glyph-name="uni02DA" unicode="&#x02DA;" d="M69 281Q65 288 52.50 287Q40 286 35 276Q30 268 34 265Q35 263 38 262Q41 261 44 261L45 261Q46 263 51 265.50Q56 268 60.50 270.50Q65 273 68 275.50Q71 278 69 281M103 294Q107 287 100 280.50Q93 274 82 268Q71 262 60 256.50Q49 251 46 246Q45 246 45 245.50Q45 245 44 245L43 245Q41 245 37.50 245.50Q34 246 29 248Q24 251 21 255Q19 259 18 265.50Q17 272 22 281Q28 292 40 298.50Q52 305 64.50 306.50Q77 308 87.50 304.50Q98 301 103 294Z"  horiz-adv-x="124" vert-adv-y="500"  />

      
      <glyph glyph-name="uni02DC" unicode="&#x02DC;" d="M129 283Q130 282 131 282Q148 279 156 272Q164 264 166 257.50Q168 251 166 246Q164 240 159 236Q154 232 150 230.50Q146 229 144 229L140 229Q126 248 111.50 254.50Q97 261 85 263Q69 261 54 263Q39 265 31 273Q23 281 21.50 288Q20 295 22 300Q24 305 30 310Q37 317 44 317Q44 319 48 317Q64 297 79 290.50Q94 284 105 283L126 283L129 283L129 283Z"  horiz-adv-x="188" vert-adv-y="500"  />

      
      <glyph glyph-name="uni21" unicode="&#x21;" d="M133 49Q132 47 132.50 44Q133 41 132 39Q129 30 126 16Q123 2 122-13Q121-28 122.50-42.50Q124-57 130-67Q132-71 129-77Q127-80 124-80.50Q121-81 119-81Q115-80 107.50-78.50Q100-77 92-73Q84-69 76-62Q68-55 64-43Q61-33 60-20Q59-7 60 6.50Q61 20 63.50 32.50Q66 45 68 54Q68 58 73.50 79.50Q79 101 89 134Q99 167 114 207.50Q129 248 149 289.50Q169 331 192.50 370Q216 409 244 438Q244 439 248 441Q252 442 257 443Q262 444 270 444Q272 444 275.50 443.50Q279 443 284 442Q288 440 300 433.50Q312 427 314 411Q314 407 310 403Q309 402 307.50 400.50Q306 399 304 397Q299 394 277 360Q255 326 227 276Q199 226 173 167Q147 108 135 54Q135 53 133 49M26-141Q29-135 36-118.50Q43-102 44-86Q44-82 47-82Q49-80 54-78Q59-76 67-76Q76-75 83-79Q89-82 94-89.50Q99-97 100-112Q100-131 86.50-142.50Q73-154 57-157.50Q41-161 30.50-157Q20-153 26-141Z"  horiz-adv-x="322" vert-adv-y="500"  />

      
      <glyph glyph-name="unic0" unicode="&#xc0;" d="M661-13Q666-18 662-24Q660-27 657-28Q636-38 619-37.50Q602-37 590-32Q576-27 564-17Q557-11 553.50-7.50Q550-4 548-0.50Q546 3 544 8Q542 13 537 21Q527 45 509.50 74Q492 103 465 129Q443 101 409 63Q375 25 336-9.50Q297-44 258-67.50Q219-91 188-91Q160-91 142-79.50Q124-68 113-54.50Q102-41 97.50-29Q93-17 92-16Q92-14 92.50-12.50Q93-11 93-9Q93-8 94.50-5.50Q96-3 100-2Q109 1 114-8Q116-10 121.50-14.50Q127-19 135-20L137-20Q165-21 200-4.50Q235 12 272 39Q309 66 346.50 100Q384 134 417 167Q391 183 360 194Q329 205 291 208Q248 211 215.50 204.50Q183 198 159 186.50Q135 175 120 162.50Q105 150 97 141Q91 134 89 129Q87 124 87 122L87 120Q86 112 82 108Q80 106 78 106Q71 104 67 108Q63 112 61 117Q58 123 56 131Q46 177 59 205.50Q72 234 97 250Q122 266 154 272Q186 278 214.50 278.50Q243 279 263 277Q283 275 284 275Q341 265 382.50 247Q424 229 455 206Q482 235 502 257.50Q522 280 530 289Q543 303 559 320.50Q575 338 592 354Q609 370 625.50 382.50Q642 395 657 399Q665 402 671 401Q682 400 691 396Q700 392 708 387Q721 378 730 367Q731 365 731.50 362.50Q732 360 729 355Q721 346 706.50 325.50Q692 305 676.50 275.50Q661 246 646 210.50Q631 175 624 136Q615 91 618.50 63.50Q622 36 630 20Q638 4 648-3Q658-10 661-13M536 112Q544 150 561 187.50Q578 225 595 254Q615 288 639 319Q630 319 614 305Q598 291 578.50 269.50Q559 248 537.50 221.50Q516 195 495 169Q509 155 518.50 140.50Q528 126 536 112M773 435Q784 428 770 424.50Q756 421 733 422.50Q710 424 686 432.50Q662 441 653 458Q646 472 647 480.50Q648 489 652 495Q656 501 665 506Q672 510 677.50 510.50Q683 511 685 510Q688 513 690 508Q699 481 712 467Q725 453 737.50 446.50Q750 440 760 438.50Q770 437 773 435Z"  horiz-adv-x="651" vert-adv-y="500"  />

      
      <glyph glyph-name="unic1" unicode="&#xc1;" d="M661-13Q666-18 662-24Q660-27 657-28Q636-38 619-37.50Q602-37 590-32Q576-27 564-17Q557-11 553.50-7.50Q550-4 548-0.50Q546 3 544 8Q542 13 537 21Q527 45 509.50 74Q492 103 465 129Q443 101 409 63Q375 25 336-9.50Q297-44 258-67.50Q219-91 188-91Q160-91 142-79.50Q124-68 113-54.50Q102-41 97.50-29Q93-17 92-16Q92-14 92.50-12.50Q93-11 93-9Q93-8 94.50-5.50Q96-3 100-2Q109 1 114-8Q116-10 121.50-14.50Q127-19 135-20L137-20Q165-21 200-4.50Q235 12 272 39Q309 66 346.50 100Q384 134 417 167Q391 183 360 194Q329 205 291 208Q248 211 215.50 204.50Q183 198 159 186.50Q135 175 120 162.50Q105 150 97 141Q91 134 89 129Q87 124 87 122L87 120Q86 112 82 108Q80 106 78 106Q71 104 67 108Q63 112 61 117Q58 123 56 131Q46 177 59 205.50Q72 234 97 250Q122 266 154 272Q186 278 214.50 278.50Q243 279 263 277Q283 275 284 275Q341 265 382.50 247Q424 229 455 206Q482 235 502 257.50Q522 280 530 289Q543 303 559 320.50Q575 338 592 354Q609 370 625.50 382.50Q642 395 657 399Q665 402 671 401Q682 400 691 396Q700 392 708 387Q721 378 730 367Q731 365 731.50 362.50Q732 360 729 355Q721 346 706.50 325.50Q692 305 676.50 275.50Q661 246 646 210.50Q631 175 624 136Q615 91 618.50 63.50Q622 36 630 20Q638 4 648-3Q658-10 661-13M536 112Q544 150 561 187.50Q578 225 595 254Q615 288 639 319Q630 319 614 305Q598 291 578.50 269.50Q559 248 537.50 221.50Q516 195 495 169Q509 155 518.50 140.50Q528 126 536 112M676 489Q679 489 687.50 483.50Q696 478 710 474.50Q724 471 743 472.50Q762 474 786 488Q791 490 791 486Q799 482 803 469Q807 461 806 453Q805 446 799.50 438.50Q794 431 780 426Q762 419 739 429Q716 439 697.50 453Q679 467 671 479Q663 491 676 489Z"  horiz-adv-x="651" vert-adv-y="500"  />

      
      <glyph glyph-name="unic2" unicode="&#xc2;" d="M661-13Q666-18 662-24Q660-27 657-28Q636-38 619-37.50Q602-37 590-32Q576-27 564-17Q557-11 553.50-7.50Q550-4 548-0.50Q546 3 544 8Q542 13 537 21Q527 45 509.50 74Q492 103 465 129Q443 101 409 63Q375 25 336-9.50Q297-44 258-67.50Q219-91 188-91Q160-91 142-79.50Q124-68 113-54.50Q102-41 97.50-29Q93-17 92-16Q92-14 92.50-12.50Q93-11 93-9Q93-8 94.50-5.50Q96-3 100-2Q109 1 114-8Q116-10 121.50-14.50Q127-19 135-20L137-20Q165-21 200-4.50Q235 12 272 39Q309 66 346.50 100Q384 134 417 167Q391 183 360 194Q329 205 291 208Q248 211 215.50 204.50Q183 198 159 186.50Q135 175 120 162.50Q105 150 97 141Q91 134 89 129Q87 124 87 122L87 120Q86 112 82 108Q80 106 78 106Q71 104 67 108Q63 112 61 117Q58 123 56 131Q46 177 59 205.50Q72 234 97 250Q122 266 154 272Q186 278 214.50 278.50Q243 279 263 277Q283 275 284 275Q341 265 382.50 247Q424 229 455 206Q482 235 502 257.50Q522 280 530 289Q543 303 559 320.50Q575 338 592 354Q609 370 625.50 382.50Q642 395 657 399Q665 402 671 401Q682 400 691 396Q700 392 708 387Q721 378 730 367Q731 365 731.50 362.50Q732 360 729 355Q721 346 706.50 325.50Q692 305 676.50 275.50Q661 246 646 210.50Q631 175 624 136Q615 91 618.50 63.50Q622 36 630 20Q638 4 648-3Q658-10 661-13M536 112Q544 150 561 187.50Q578 225 595 254Q615 288 639 319Q630 319 614 305Q598 291 578.50 269.50Q559 248 537.50 221.50Q516 195 495 169Q509 155 518.50 140.50Q528 126 536 112M620 459Q623 460 631.50 459Q640 458 652 459.50Q664 461 678 468Q692 475 706 491Q708 495 712 498Q714 500 716 502.50Q718 505 720 508Q722 510 725 508Q728 507 736 505Q744 503 747 502Q748 503 749.50 502Q751 501 751 499Q751 495 751.50 492Q752 489 753 485L754 478Q758 457 767 444Q776 431 785.50 423.50Q795 416 803 412.50Q811 409 813 407Q820 399 811 397.50Q802 396 785.50 400Q769 404 749.50 413.50Q730 423 717 436Q699 431 678 433Q657 435 640.50 439.50Q624 444 617 450Q610 456 620 459Z"  horiz-adv-x="651" vert-adv-y="500"  />

      
      <glyph glyph-name="unic3" unicode="&#xc3;" d="M661-13Q666-18 662-24Q660-27 657-28Q636-38 619-37.50Q602-37 590-32Q576-27 564-17Q557-11 553.50-7.50Q550-4 548-0.50Q546 3 544 8Q542 13 537 21Q527 45 509.50 74Q492 103 465 129Q443 101 409 63Q375 25 336-9.50Q297-44 258-67.50Q219-91 188-91Q160-91 142-79.50Q124-68 113-54.50Q102-41 97.50-29Q93-17 92-16Q92-14 92.50-12.50Q93-11 93-9Q93-8 94.50-5.50Q96-3 100-2Q109 1 114-8Q116-10 121.50-14.50Q127-19 135-20L137-20Q165-21 200-4.50Q235 12 272 39Q309 66 346.50 100Q384 134 417 167Q391 183 360 194Q329 205 291 208Q248 211 215.50 204.50Q183 198 159 186.50Q135 175 120 162.50Q105 150 97 141Q91 134 89 129Q87 124 87 122L87 120Q86 112 82 108Q80 106 78 106Q71 104 67 108Q63 112 61 117Q58 123 56 131Q46 177 59 205.50Q72 234 97 250Q122 266 154 272Q186 278 214.50 278.50Q243 279 263 277Q283 275 284 275Q341 265 382.50 247Q424 229 455 206Q482 235 502 257.50Q522 280 530 289Q543 303 559 320.50Q575 338 592 354Q609 370 625.50 382.50Q642 395 657 399Q665 402 671 401Q682 400 691 396Q700 392 708 387Q721 378 730 367Q731 365 731.50 362.50Q732 360 729 355Q721 346 706.50 325.50Q692 305 676.50 275.50Q661 246 646 210.50Q631 175 624 136Q615 91 618.50 63.50Q622 36 630 20Q638 4 648-3Q658-10 661-13M536 112Q544 150 561 187.50Q578 225 595 254Q615 288 639 319Q630 319 614 305Q598 291 578.50 269.50Q559 248 537.50 221.50Q516 195 495 169Q509 155 518.50 140.50Q528 126 536 112M770 465Q771 464 772 464Q789 461 797 454Q805 446 807 439.50Q809 433 807 428Q805 422 800 418Q795 414 791 412.50Q787 411 785 411L781 411Q767 430 752.50 436.50Q738 443 726 445Q710 443 695 445Q680 447 672 455Q664 463 662.50 470Q661 477 663 482Q665 487 671 492Q678 499 685 499Q685 501 689 499Q705 479 720 472.50Q735 466 746 465L767 465L770 465L770 465Z"  horiz-adv-x="651" vert-adv-y="500"  />

      
      <glyph glyph-name="unic4" unicode="&#xc4;" d="M661-13Q666-18 662-24Q660-27 657-28Q636-38 619-37.50Q602-37 590-32Q576-27 564-17Q557-11 553.50-7.50Q550-4 548-0.50Q546 3 544 8Q542 13 537 21Q527 45 509.50 74Q492 103 465 129Q443 101 409 63Q375 25 336-9.50Q297-44 258-67.50Q219-91 188-91Q160-91 142-79.50Q124-68 113-54.50Q102-41 97.50-29Q93-17 92-16Q92-14 92.50-12.50Q93-11 93-9Q93-8 94.50-5.50Q96-3 100-2Q109 1 114-8Q116-10 121.50-14.50Q127-19 135-20L137-20Q165-21 200-4.50Q235 12 272 39Q309 66 346.50 100Q384 134 417 167Q391 183 360 194Q329 205 291 208Q248 211 215.50 204.50Q183 198 159 186.50Q135 175 120 162.50Q105 150 97 141Q91 134 89 129Q87 124 87 122L87 120Q86 112 82 108Q80 106 78 106Q71 104 67 108Q63 112 61 117Q58 123 56 131Q46 177 59 205.50Q72 234 97 250Q122 266 154 272Q186 278 214.50 278.50Q243 279 263 277Q283 275 284 275Q341 265 382.50 247Q424 229 455 206Q482 235 502 257.50Q522 280 530 289Q543 303 559 320.50Q575 338 592 354Q609 370 625.50 382.50Q642 395 657 399Q665 402 671 401Q682 400 691 396Q700 392 708 387Q721 378 730 367Q731 365 731.50 362.50Q732 360 729 355Q721 346 706.50 325.50Q692 305 676.50 275.50Q661 246 646 210.50Q631 175 624 136Q615 91 618.50 63.50Q622 36 630 20Q638 4 648-3Q658-10 661-13M536 112Q544 150 561 187.50Q578 225 595 254Q615 288 639 319Q630 319 614 305Q598 291 578.50 269.50Q559 248 537.50 221.50Q516 195 495 169Q509 155 518.50 140.50Q528 126 536 112M775 488Q779 481 772 474.50Q765 468 754 462Q743 456 732 450.50Q721 445 718 440Q717 440 717 439.50Q717 439 716 439L715 439Q713 439 709.50 439.50Q706 440 701 442Q696 445 693 449Q691 453 690 459.50Q689 466 694 475Q700 486 712 492.50Q724 499 736.50 500.50Q749 502 759.50 498.50Q770 495 775 488M842 461Q846 454 839 447.50Q832 441 821 435Q810 429 799 423.50Q788 418 785 413Q784 413 784 412.50Q784 412 783 412L782 412Q780 412 776.50 412.50Q773 413 768 415Q763 418 760 422Q758 426 757 432.50Q756 439 761 448Q767 459 779 465.50Q791 472 803.50 473.50Q816 475 826.50 471.50Q837 468 842 461Z"  horiz-adv-x="651" vert-adv-y="500"  />

      
      </font>
</defs>
</svg>
